<?xml version="1.0" encoding="utf-8"?>
<!-- Generator: Adobe Illustrator 18.1.1, SVG Export Plug-In . SVG Version: 6.00 Build 0)  -->
<svg version="1.1" id="Calque_1" xmlns="http://www.w3.org/2000/svg" xmlns:xlink="http://www.w3.org/1999/xlink" x="0px" y="0px"
	 viewBox="56.3 287.9 482.7 365" enable-background="new 56.3 287.9 482.7 365" xml:space="preserve">
<g>
	<polygon id="path-1_1_" fill="#73AEF2" stroke="#FFFFFF" stroke-width="1.76" stroke-opacity="0.6" points="530.9,408.9 
		298.4,356.5 298.4,524.2 530.9,576.6 	"/>
	<polygon id="path-3_1_" fill="#73AEF2" stroke="#FFFFFF" stroke-width="1.76" stroke-opacity="0.6" points="67.6,408.9 
		300.1,356.5 300.1,524.2 67.6,576.6 	"/>
	<path id="path-5_1_" fill="#73AEF2" stroke="#FFFFFF" stroke-width="1.76" stroke-opacity="0.6" d="M116.4,300.8h363.9
		c3,0,5.2,2.4,5.2,5.2v230.4c0,3-2.4,5.2-5.2,5.2H116.4c-3,0-5.2-2.4-5.2-5.2V305.9C111.2,303.2,113.6,300.8,116.4,300.8z"/>
	<rect id="Rectangle-158" x="148" y="398.4" fill="#FFFFFF" width="118.9" height="8.7"/>
	<rect id="Rectangle-158_1_" x="148" y="415.9" fill="#FFFFFF" width="83.9" height="8.7"/>
	<rect id="Rectangle-188_1_" x="113" y="325.2" fill="#ABCEF7" width="370.7" height="19.2"/>
	<path id="path-7_1_" fill="#FFFFFF" stroke="#FFFFFF" stroke-width="1.76" stroke-opacity="0.6" d="M116.4,300.8h363.9
		c3,0,5.2,2.4,5.2,5.2v13.9c0,3-2.4,5.2-5.2,5.2H116.4c-3,0-5.2-2.4-5.2-5.2v-14C111.2,303.2,113.6,300.8,116.4,300.8z"/>
	<ellipse id="Oval-34" fill="#1678EA" cx="123.5" cy="312.9" rx="3.6" ry="3.6"/>
	<ellipse id="Oval-34_1_" fill="#1678EA" cx="135.7" cy="312.9" rx="3.6" ry="3.6"/>
	<ellipse id="Oval-34_2_" fill="#1678EA" cx="148" cy="312.9" rx="3.6" ry="3.6"/>
	<rect id="Rectangle-156" x="237.2" y="311.3" fill="#1678EA" width="122.4" height="3.6"/>
	<polygon id="path-9_1_" fill="#ABCEF7" stroke="#FFFFFF" stroke-width="1.76" stroke-opacity="0.6" points="298.4,465.5 
		530.9,408.9 530.9,589.9 298.4,646.4 	"/>
	<polygon id="path-11_1_" fill="#ABCEF7" stroke="#FFFFFF" stroke-width="1.76" stroke-opacity="0.6" points="300.1,465.5 
		67.6,408.9 67.6,589.9 300.1,646.4 	"/>
</g>
</svg>
