<?xml version="1.0" encoding="UTF-8" standalone="no"?>
<svg width="243px" height="99px" viewBox="0 0 243 99" version="1.1" xmlns="http://www.w3.org/2000/svg" xmlns:xlink="http://www.w3.org/1999/xlink">
    <!-- Generator: Sketch 3.8.3 (29802) - http://www.bohemiancoding.com/sketch -->
    <title>logo</title>
    <desc>Created with Sketch.</desc>
    <defs></defs>
    <g id="Page-1" stroke="none" stroke-width="1" fill="none" fill-rule="evenodd">
        <g id="Desktop" transform="translate(-520.000000, -3376.000000)">
            <g id="FOOTER" transform="translate(0.000000, 3296.000000)">
                <g id="logo" transform="translate(520.000000, 80.000000)">
                    <path d="M0.776,66.28 C0.776,63.9119882 1.78398992,61.928008 3.8,60.328 C5.81601008,58.727992 8.5439828,57.928 11.984,57.928 C15.4240172,57.928 18.1999894,58.7119922 20.312,60.28 C22.4240106,61.8480078 23.5439994,63.9919864 23.672,66.712 L15.272,66.712 C15.1759995,65.7839954 14.8560027,65.1520017 14.312,64.816 C13.7679973,64.4799983 12.9520054,64.312 11.864,64.312 C9.71998928,64.312 8.648,64.9679934 8.648,66.28 C8.648,67.4640059 9.95998688,68.2799978 12.584,68.728 C15.2400133,69.1760022 17.6559891,69.8639954 19.832,70.792 C20.9520056,71.2400022 21.8879962,71.9839948 22.64,73.024 C23.3920038,74.0640052 23.768,75.3359925 23.768,76.84 C23.768,79.3360125 22.6960107,81.3759921 20.552,82.96 C18.4079893,84.5440079 15.7040163,85.336 12.44,85.336 C9.17598368,85.336 6.45601088,84.5920074 4.28,83.104 C2.10398912,81.6159926 0.92000096,79.4160146 0.728,76.504 L9.128,76.504 C9.35200112,78.1360082 10.5039896,78.952 12.584,78.952 C13.5440048,78.952 14.3359969,78.7280022 14.96,78.28 C15.5840031,77.8319978 15.896,77.2560035 15.896,76.552 C15.896,75.8479965 15.3760052,75.2880021 14.336,74.872 C13.2959948,74.4559979 12.0400074,74.1040014 10.568,73.816 C9.09599264,73.5279986 7.61600744,73.1680022 6.128,72.736 C4.63999256,72.3039978 3.3760052,71.5520054 2.336,70.48 C1.2959948,69.4079946 0.776,68.0080086 0.776,66.28 L0.776,66.28 Z M30.32,56.584 C28.9759933,56.584 27.8400046,56.1200046 26.912,55.192 C25.9839954,54.2639954 25.52,53.1200068 25.52,51.76 C25.52,50.3999932 25.9839954,49.2560046 26.912,48.328 C27.8400046,47.3999954 28.9759933,46.936 30.32,46.936 C31.6640067,46.936 32.7999954,47.3999954 33.728,48.328 C34.6560046,49.2560046 35.12,50.3999932 35.12,51.76 C35.12,53.1200068 34.6560046,54.2639954 33.728,55.192 C32.7999954,56.1200046 31.6640067,56.584 30.32,56.584 L30.32,56.584 Z M26.24,85 L26.24,58.216 L34.448,58.216 L34.448,85 L26.24,85 Z M46.856,58.216 L46.856,62.152 C48.5520085,59.3359859 51.2559814,57.928 54.968,57.928 C56.9520099,57.928 58.7199922,58.3759955 60.272,59.272 C61.8240078,60.1680045 63.0319957,61.4479917 63.896,63.112 C64.888005,61.5439922 66.1759921,60.2880047 67.76,59.344 C69.3440079,58.3999953 71.1119902,57.928 73.064,57.928 C76.3280163,57.928 78.9199904,58.9359899 80.84,60.952 C82.7600096,62.9680101 83.72,65.7679821 83.72,69.352 L83.72,85 L75.56,85 L75.56,70.456 C75.56,68.7279914 75.1040046,67.3920047 74.192,66.448 C73.2799954,65.5039953 72.024008,65.032 70.424,65.032 C68.823992,65.032 67.5680046,65.5039953 66.656,66.448 C65.7439954,67.3920047 65.288,68.7279914 65.288,70.456 L65.288,85 L57.128,85 L57.128,70.456 C57.128,68.7279914 56.6720046,67.3920047 55.76,66.448 C54.8479954,65.5039953 53.592008,65.032 51.992,65.032 C50.391992,65.032 49.1360046,65.5039953 48.224,66.448 C47.3119954,67.3920047 46.856,68.7279914 46.856,70.456 L46.856,85 L38.648,85 L38.648,58.216 L46.856,58.216 Z M107.6,71.656 C107.6,69.5439894 107.008006,67.9120058 105.824,66.76 C104.639994,65.6079942 103.280008,65.032 101.744,65.032 C100.207992,65.032 98.8480059,65.5999943 97.664,66.736 C96.4799941,67.8720057 95.888,69.4959894 95.888,71.608 C95.888,73.7200106 96.4799941,75.3519942 97.664,76.504 C98.8480059,77.6560058 100.207992,78.232 101.744,78.232 C103.280008,78.232 104.639994,77.6640057 105.824,76.528 C107.008006,75.3919943 107.6,73.7680106 107.6,71.656 L107.6,71.656 Z M95.888,61.72 C97.7120091,59.1919874 100.327983,57.928 103.736,57.928 C107.144017,57.928 110.031988,59.2159871 112.4,61.792 C114.768012,64.3680129 115.952,67.65598 115.952,71.656 C115.952,75.65602 114.768012,78.9359872 112.4,81.496 C110.031988,84.0560128 107.168017,85.336 103.808,85.336 C100.447983,85.336 97.8080096,83.9280141 95.888,81.112 L95.888,97.768 L87.68,97.768 L87.68,58.216 L95.888,58.216 L95.888,61.72 Z M118.184,85 L118.184,49.48 L126.392,49.48 L126.392,85 L118.184,85 Z M141.968,85.336 C138.06398,85.336 134.864012,84.0800126 132.368,81.568 C129.871988,79.0559874 128.624,75.7200208 128.624,71.56 C128.624,67.3999792 129.863988,64.0880123 132.344,61.624 C134.824012,59.1599877 138.03198,57.928 141.968,57.928 C145.90402,57.928 149.167987,59.1439878 151.76,61.576 C154.352013,64.0080122 155.648,67.3839784 155.648,71.704 C155.648,72.6320046 155.584001,73.495996 155.456,74.296 L137.024,74.296 C137.184001,75.4800059 137.711996,76.4479962 138.608,77.2 C139.504004,77.9520038 140.471995,78.328 141.512,78.328 C142.552005,78.328 143.327997,78.224001 143.84,78.016 C144.352003,77.807999 144.727999,77.600001 144.968,77.392 C145.208001,77.183999 145.519998,76.8400024 145.904,76.36 L154.784,76.36 C154.015996,79.0480134 152.480012,81.2159918 150.176,82.864 C147.871988,84.5120082 145.136016,85.336 141.968,85.336 L141.968,85.336 Z M145.472,66.112 C144.511995,65.3279961 143.376007,64.936 142.064,64.936 C140.751993,64.936 139.648004,65.3279961 138.752,66.112 C137.855996,66.8960039 137.296001,67.9119938 137.072,69.16 L147.104,69.16 C146.975999,67.9119938 146.432005,66.8960039 145.472,66.112 L145.472,66.112 Z M169.304,78.04 L172.232,78.04 L172.232,85 L168.056,85 C165.047985,85 162.720008,84.3360066 161.072,83.008 C159.423992,81.6799934 158.6,79.4000162 158.6,76.168 L158.6,65.032 L156.104,65.032 L156.104,58.216 L158.6,58.216 L158.6,51.688 L166.808,51.688 L166.808,58.216 L172.184,58.216 L172.184,65.032 L166.808,65.032 L166.808,76.168 C166.808,77.4160062 167.639992,78.04 169.304,78.04 L169.304,78.04 Z M192.944,71.608 C192.944,69.4959894 192.352006,67.8720057 191.168,66.736 C189.983994,65.5999943 188.624008,65.032 187.088,65.032 C185.551992,65.032 184.192006,65.6079942 183.008,66.76 C181.823994,67.9120058 181.232,69.5439894 181.232,71.656 C181.232,73.7680106 181.823994,75.3919943 183.008,76.528 C184.192006,77.6640057 185.551992,78.232 187.088,78.232 C188.624008,78.232 189.983994,77.6560058 191.168,76.504 C192.352006,75.3519942 192.944,73.7200106 192.944,71.608 L192.944,71.608 Z M172.88,71.656 C172.88,67.65598 174.063988,64.3680129 176.432,61.792 C178.800012,59.2159871 181.687983,57.928 185.096,57.928 C188.504017,57.928 191.119991,59.1919874 192.944,61.72 L192.944,58.216 L201.152,58.216 L201.152,85 L192.944,85 L192.944,81.112 C190.95999,83.9280141 188.304017,85.336 184.976,85.336 C181.647983,85.336 178.800012,84.0560128 176.432,81.496 C174.063988,78.9359872 172.88,75.65602 172.88,71.656 L172.88,71.656 Z M203.384,71.656 C203.384,67.65598 204.567988,64.3680129 206.936,61.792 C209.304012,59.2159871 212.191983,57.928 215.6,57.928 C219.008017,57.928 221.623991,59.1919874 223.448,61.72 L223.448,58.216 L231.656,58.216 L231.656,84.856 C231.656,88.6000187 230.63201,91.7199875 228.584,94.216 C227.559995,95.4960064 226.160009,96.4879965 224.384,97.192 C222.607991,97.8960035 220.552012,98.248 218.216,98.248 C214.11998,98.248 210.872012,97.4160083 208.472,95.752 C206.071988,94.0879917 204.712002,91.5440171 204.392,88.12 L212.456,88.12 C213.224004,90.1360101 215.143985,91.144 218.216,91.144 C219.720008,91.144 220.967995,90.640005 221.96,89.632 C222.952005,88.623995 223.448,87.0320109 223.448,84.856 L223.448,81.112 C221.46399,83.9280141 218.808017,85.336 215.48,85.336 C212.151983,85.336 209.304012,84.0560128 206.936,81.496 C204.567988,78.9359872 203.384,75.65602 203.384,71.656 L203.384,71.656 Z M223.448,71.608 C223.448,69.4959894 222.856006,67.8720057 221.672,66.736 C220.487994,65.5999943 219.128008,65.032 217.592,65.032 C216.055992,65.032 214.696006,65.6079942 213.512,66.76 C212.327994,67.9120058 211.736,69.5439894 211.736,71.656 C211.736,73.7680106 212.327994,75.3919943 213.512,76.528 C214.696006,77.6640057 216.055992,78.232 217.592,78.232 C219.128008,78.232 220.487994,77.6560058 221.672,76.504 C222.856006,75.3519942 223.448,73.7200106 223.448,71.608 L223.448,71.608 Z M241.616,83.704 C240.751996,84.5680043 239.688006,85 238.424,85 C237.159994,85 236.096004,84.5680043 235.232,83.704 C234.367996,82.8399957 233.936,81.7760063 233.936,80.512 C233.936,79.2479937 234.367996,78.1840043 235.232,77.32 C236.096004,76.4559957 237.159994,76.024 238.424,76.024 C239.688006,76.024 240.751996,76.4559957 241.616,77.32 C242.480004,78.1840043 242.912,79.2479937 242.912,80.512 C242.912,81.7760063 242.480004,82.8399957 241.616,83.704 L241.616,83.704 Z" id="simpletag." fill="#FFFFFF"></path>
                    <g id="Group" transform="translate(68.000000, 0.000000)">
                        <path d="M35.5273438,4.75 L35.5273438,5.7734375 L36.3164062,5.7734375 L36.3164062,6.33203125 L35.5273438,6.33203125 L35.5273438,8.953125 C35.5273438,9.06250055 35.5403645,9.15039029 35.5664062,9.21679688 C35.592448,9.28320346 35.6269529,9.33463523 35.6699219,9.37109375 C35.7128908,9.40755227 35.7623695,9.43164057 35.8183594,9.44335938 C35.8743492,9.45507818 35.9322914,9.4609375 35.9921875,9.4609375 C36.0520836,9.4609375 36.115234,9.45507818 36.1816406,9.44335938 C36.2480472,9.43164057 36.299479,9.42187504 36.3359375,9.4140625 L36.3359375,10 C36.2786455,10.0156251 36.2044275,10.032552 36.1132812,10.0507812 C36.022135,10.0690105 35.911459,10.078125 35.78125,10.078125 C35.6484368,10.078125 35.5227871,10.059245 35.4042969,10.0214844 C35.2858067,9.98372377 35.1822921,9.92057336 35.09375,9.83203125 C35.0052079,9.74348914 34.9348961,9.62695385 34.8828125,9.48242188 C34.8307289,9.3378899 34.8046875,9.1601573 34.8046875,8.94921875 L34.8046875,6.33203125 L34.0351562,6.33203125 L34.0351562,5.7734375 L34.8046875,5.7734375 L34.8046875,4.75 L35.5273438,4.75 Z M39.2695312,10 C39.2434895,9.94791641 39.2226563,9.88216186 39.2070312,9.80273438 C39.1914062,9.72330689 39.1783855,9.64062543 39.1679688,9.5546875 C39.1002601,9.62500035 39.024089,9.69205697 38.9394531,9.75585938 C38.8548173,9.81966178 38.7623703,9.8756508 38.6621094,9.92382812 C38.5618485,9.97200545 38.4531256,10.0097655 38.3359375,10.0371094 C38.2187494,10.0644533 38.0950527,10.078125 37.9648438,10.078125 C37.7486968,10.078125 37.5527353,10.0455732 37.3769531,9.98046875 C37.201171,9.91536426 37.0514329,9.82682348 36.9277344,9.71484375 C36.8040358,9.60286402 36.7083337,9.47070389 36.640625,9.31835938 C36.5729163,9.16601486 36.5390625,9.00260504 36.5390625,8.828125 C36.5390625,8.60156137 36.5833329,8.40169357 36.671875,8.22851562 C36.7604171,8.05533768 36.887369,7.91015684 37.0527344,7.79296875 C37.2180998,7.67578066 37.4179676,7.58723988 37.6523438,7.52734375 C37.8867199,7.46744762 38.1484361,7.4375 38.4375,7.4375 L39.15625,7.4375 L39.15625,7.10546875 C39.15625,6.85286332 39.0807299,6.65169346 38.9296875,6.50195312 C38.7786451,6.35221279 38.5559911,6.27734375 38.2617188,6.27734375 C38.1263014,6.27734375 38.0026047,6.29557273 37.890625,6.33203125 C37.7786453,6.36848977 37.6829431,6.4173174 37.6035156,6.47851562 C37.5240881,6.53971385 37.4622398,6.61067668 37.4179688,6.69140625 C37.3736977,6.77213582 37.3515625,6.85677039 37.3515625,6.9453125 L36.625,6.9453125 C36.625,6.79427008 36.6647131,6.64453199 36.7441406,6.49609375 C36.8235681,6.34765551 36.9361972,6.2141933 37.0820312,6.09570312 C37.2278653,5.97721295 37.4042958,5.88085975 37.6113281,5.80664062 C37.8183604,5.7324215 38.0494779,5.6953125 38.3046875,5.6953125 C38.5338553,5.6953125 38.7454417,5.72460908 38.9394531,5.78320312 C39.1334645,5.84179717 39.2994785,5.93033795 39.4375,6.04882812 C39.5755215,6.1673183 39.6835934,6.31510328 39.7617188,6.4921875 C39.8398441,6.66927172 39.8789062,6.8763009 39.8789062,7.11328125 L39.8789062,9.078125 C39.8789062,9.22135488 39.8912759,9.371744 39.9160156,9.52929688 C39.9407553,9.68684975 39.9778643,9.82291609 40.0273438,9.9375 L40.0273438,10 L39.2695312,10 Z M38.0703125,9.44921875 C38.2005215,9.44921875 38.3229161,9.43098977 38.4375,9.39453125 C38.5520839,9.35807273 38.6562495,9.31054717 38.75,9.25195312 C38.8437505,9.19335908 38.9251299,9.12630246 38.9941406,9.05078125 C39.0631514,8.97526004 39.1171873,8.89713582 39.15625,8.81640625 L39.15625,7.94921875 L38.5546875,7.94921875 C38.1406229,7.94921875 37.8216157,8.01367123 37.5976562,8.14257812 C37.3736968,8.27148502 37.2617188,8.46614453 37.2617188,8.7265625 C37.2617188,8.82812551 37.2786457,8.92317664 37.3125,9.01171875 C37.3463543,9.10026086 37.3977861,9.17643197 37.4667969,9.24023438 C37.5358076,9.30403678 37.6204422,9.35481752 37.7207031,9.39257812 C37.820964,9.43033873 37.9374993,9.44921875 38.0703125,9.44921875 L38.0703125,9.44921875 Z M40.3398438,7.8515625 C40.3398438,7.52864422 40.3782548,7.23502736 40.4550781,6.97070312 C40.5319014,6.70637889 40.6425774,6.47981865 40.7871094,6.29101562 C40.9316413,6.1022126 41.1067698,5.95572969 41.3125,5.8515625 C41.5182302,5.74739531 41.7499987,5.6953125 42.0078125,5.6953125 C42.276043,5.6953125 42.5091136,5.74218703 42.7070312,5.8359375 C42.9049489,5.92968797 43.074218,6.06510328 43.2148438,6.2421875 L43.25,5.7734375 L43.9101562,5.7734375 L43.9101562,9.91015625 C43.9101562,10.1888035 43.8665369,10.4368479 43.7792969,10.6542969 C43.6920569,10.8717459 43.5690112,11.0553378 43.4101562,11.2050781 C43.2513013,11.3548185 43.0625011,11.4687496 42.84375,11.546875 C42.6249989,11.6250004 42.3828138,11.6640625 42.1171875,11.6640625 C42.007812,11.6640625 41.8821622,11.6516928 41.7402344,11.6269531 C41.5983066,11.6022134 41.4550788,11.5618492 41.3105469,11.5058594 C41.1660149,11.4498695 41.0273444,11.3750005 40.8945312,11.28125 C40.7617181,11.1874995 40.648438,11.0716153 40.5546875,10.9335938 L40.9296875,10.5 C41.0182296,10.6093755 41.1093745,10.7005205 41.203125,10.7734375 C41.2968755,10.8463545 41.3912756,10.9049477 41.4863281,10.9492188 C41.5813807,10.9934898 41.6777339,11.0253905 41.7753906,11.0449219 C41.8730474,11.0644532 41.9700516,11.0742188 42.0664062,11.0742188 C42.2356779,11.0742188 42.3893222,11.0501304 42.5273438,11.0019531 C42.6653653,10.9537758 42.7832026,10.8815109 42.8808594,10.7851562 C42.9785161,10.6888016 43.0533852,10.5709642 43.1054688,10.4316406 C43.1575523,10.292317 43.1835938,10.1302093 43.1835938,9.9453125 L43.1835938,9.578125 C43.042968,9.73958414 42.875652,9.86328082 42.6816406,9.94921875 C42.4876292,10.0351567 42.260418,10.078125 42,10.078125 C41.7473946,10.078125 41.5188812,10.0247401 41.3144531,9.91796875 C41.110025,9.81119738 40.9355476,9.66211033 40.7910156,9.47070312 C40.6464837,9.27929592 40.5351566,9.05273568 40.4570312,8.79101562 C40.3789059,8.52929557 40.3398438,8.24349113 40.3398438,7.93359375 L40.3398438,7.8515625 Z M41.0664062,7.93359375 C41.0664062,8.1445323 41.0878904,8.34309803 41.1308594,8.52929688 C41.1738283,8.71549572 41.2402339,8.87760348 41.3300781,9.015625 C41.4199223,9.15364652 41.5351555,9.26302043 41.6757812,9.34375 C41.816407,9.42447957 41.984374,9.46484375 42.1796875,9.46484375 C42.3072923,9.46484375 42.4225255,9.44921891 42.5253906,9.41796875 C42.6282557,9.38671859 42.7207027,9.34375027 42.8027344,9.2890625 C42.884766,9.23437473 42.9570309,9.16927121 43.0195312,9.09375 C43.0820316,9.01822879 43.1367185,8.93489629 43.1835938,8.84375 L43.1835938,6.9140625 C43.1367185,6.82812457 43.0820316,6.74804725 43.0195312,6.67382812 C42.9570309,6.599609 42.884766,6.53515652 42.8027344,6.48046875 C42.7207027,6.42578098 42.6289068,6.38346369 42.5273438,6.35351562 C42.4257807,6.32356756 42.3125006,6.30859375 42.1875,6.30859375 C41.9895823,6.30859375 41.8203132,6.34960896 41.6796875,6.43164062 C41.5390618,6.51367229 41.4231775,6.6249993 41.3320312,6.765625 C41.240885,6.9062507 41.1738283,7.06966053 41.1308594,7.25585938 C41.0878904,7.44205822 41.0664062,7.64062395 41.0664062,7.8515625 L41.0664062,7.93359375 Z M35.2265625,13.7734375 L35.2460938,14.2421875 C35.3919278,14.0703116 35.5683583,13.9361984 35.7753906,13.8398438 C35.9824229,13.7434891 36.223957,13.6953125 36.5,13.6953125 C36.7734389,13.6953125 37.0149729,13.7493484 37.2246094,13.8574219 C37.4342458,13.9654953 37.5950515,14.1380196 37.7070312,14.375 C37.847657,14.171874 38.0305978,14.0078131 38.2558594,13.8828125 C38.4811209,13.7578119 38.7473943,13.6953125 39.0546875,13.6953125 C39.2812511,13.6953125 39.48177,13.7246091 39.65625,13.7832031 C39.83073,13.8417972 39.978515,13.9335931 40.0996094,14.0585938 C40.2207037,14.1835944 40.3124997,14.342447 40.375,14.5351562 C40.4375003,14.7278655 40.46875,14.9570299 40.46875,15.2226562 L40.46875,18 L39.7460938,18 L39.7460938,15.21875 C39.7460938,15.0416658 39.7246096,14.8945318 39.6816406,14.7773438 C39.6386717,14.6601557 39.5781254,14.5664066 39.5,14.4960938 C39.4218746,14.4257809 39.3268235,14.3769533 39.2148438,14.3496094 C39.102864,14.3222655 38.9791673,14.3085938 38.84375,14.3085938 C38.6953118,14.3085938 38.5638027,14.332031 38.4492188,14.3789062 C38.3346348,14.4257815 38.2363285,14.4889319 38.1542969,14.5683594 C38.0722652,14.6477869 38.0071617,14.7415359 37.9589844,14.8496094 C37.9108071,14.9576828 37.8802084,15.0729161 37.8671875,15.1953125 L37.8671875,18 L37.140625,18 L37.140625,15.2226562 C37.140625,15.0585929 37.1191408,14.9186204 37.0761719,14.8027344 C37.0332029,14.6868484 36.9726566,14.5924483 36.8945312,14.5195312 C36.8164059,14.4466142 36.7220058,14.3932293 36.6113281,14.359375 C36.5006505,14.3255207 36.3763028,14.3085938 36.2382812,14.3085938 C35.9804675,14.3085938 35.7734383,14.3645828 35.6171875,14.4765625 C35.4609367,14.5885422 35.3437504,14.7343741 35.265625,14.9140625 L35.265625,18 L34.5429688,18 L34.5429688,13.7734375 L35.2265625,13.7734375 Z M43.6679688,18 C43.641927,17.9479164 43.6210938,17.8821619 43.6054688,17.8027344 C43.5898437,17.7233069 43.576823,17.6406254 43.5664062,17.5546875 C43.4986976,17.6250004 43.4225265,17.692057 43.3378906,17.7558594 C43.2532548,17.8196618 43.1608078,17.8756508 43.0605469,17.9238281 C42.960286,17.9720054 42.8515631,18.0097655 42.734375,18.0371094 C42.6171869,18.0644533 42.4934902,18.078125 42.3632812,18.078125 C42.1471343,18.078125 41.9511728,18.0455732 41.7753906,17.9804688 C41.5996085,17.9153643 41.4498704,17.8268235 41.3261719,17.7148438 C41.2024733,17.602864 41.1067712,17.4707039 41.0390625,17.3183594 C40.9713538,17.1660149 40.9375,17.002605 40.9375,16.828125 C40.9375,16.6015614 40.9817704,16.4016936 41.0703125,16.2285156 C41.1588546,16.0553377 41.2858065,15.9101568 41.4511719,15.7929688 C41.6165373,15.6757807 41.8164051,15.5872399 42.0507812,15.5273438 C42.2851574,15.4674476 42.5468736,15.4375 42.8359375,15.4375 L43.5546875,15.4375 L43.5546875,15.1054688 C43.5546875,14.8528633 43.4791674,14.6516935 43.328125,14.5019531 C43.1770826,14.3522128 42.9544286,14.2773438 42.6601562,14.2773438 C42.5247389,14.2773438 42.4010422,14.2955727 42.2890625,14.3320312 C42.1770828,14.3684898 42.0813806,14.4173174 42.0019531,14.4785156 C41.9225256,14.5397138 41.8606773,14.6106767 41.8164062,14.6914062 C41.7721352,14.7721358 41.75,14.8567704 41.75,14.9453125 L41.0234375,14.9453125 C41.0234375,14.7942701 41.0631506,14.644532 41.1425781,14.4960938 C41.2220056,14.3476555 41.3346347,14.2141933 41.4804688,14.0957031 C41.6263028,13.9772129 41.8027333,13.8808597 42.0097656,13.8066406 C42.2167979,13.7324215 42.4479154,13.6953125 42.703125,13.6953125 C42.9322928,13.6953125 43.1438792,13.7246091 43.3378906,13.7832031 C43.531902,13.8417972 43.697916,13.9303379 43.8359375,14.0488281 C43.973959,14.1673183 44.0820309,14.3151033 44.1601562,14.4921875 C44.2382816,14.6692717 44.2773438,14.8763009 44.2773438,15.1132812 L44.2773438,17.078125 C44.2773438,17.2213549 44.2897134,17.371744 44.3144531,17.5292969 C44.3391928,17.6868497 44.3763018,17.8229161 44.4257812,17.9375 L44.4257812,18 L43.6679688,18 Z M42.46875,17.4492188 C42.598959,17.4492188 42.7213536,17.4309898 42.8359375,17.3945312 C42.9505214,17.3580727 43.054687,17.3105472 43.1484375,17.2519531 C43.242188,17.1933591 43.3235674,17.1263025 43.3925781,17.0507812 C43.4615889,16.97526 43.5156248,16.8971358 43.5546875,16.8164062 L43.5546875,15.9492188 L42.953125,15.9492188 C42.5390604,15.9492188 42.2200532,16.0136712 41.9960938,16.1425781 C41.7721343,16.271485 41.6601562,16.4661445 41.6601562,16.7265625 C41.6601562,16.8281255 41.6770832,16.9231766 41.7109375,17.0117188 C41.7447918,17.1002609 41.7962236,17.176432 41.8652344,17.2402344 C41.9342451,17.3040368 42.0188797,17.3548175 42.1191406,17.3925781 C42.2194015,17.4303387 42.3359368,17.4492188 42.46875,17.4492188 L42.46875,17.4492188 Z M45.59375,13.7734375 L45.6171875,14.3046875 C45.7682299,14.1145824 45.9505198,13.9654953 46.1640625,13.8574219 C46.3776052,13.7493484 46.6171862,13.6953125 46.8828125,13.6953125 C47.0885427,13.6953125 47.2747387,13.723307 47.4414062,13.7792969 C47.6080738,13.8352867 47.7499994,13.9251296 47.8671875,14.0488281 C47.9843756,14.1725267 48.0748695,14.3313792 48.1386719,14.5253906 C48.2024743,14.719402 48.234375,14.9544257 48.234375,15.2304688 L48.234375,18 L47.5117188,18 L47.5117188,15.2226562 C47.5117188,15.0585929 47.4934898,14.9186204 47.4570312,14.8027344 C47.4205727,14.6868484 47.3665368,14.5924483 47.2949219,14.5195312 C47.2233069,14.4466142 47.1347662,14.3932293 47.0292969,14.359375 C46.9238276,14.3255207 46.802084,14.3085938 46.6640625,14.3085938 C46.4296863,14.3085938 46.2239592,14.3710931 46.046875,14.4960938 C45.8697908,14.6210944 45.7317713,14.7851552 45.6328125,14.9882812 L45.6328125,18 L44.9101562,18 L44.9101562,13.7734375 L45.59375,13.7734375 Z M51.4335938,18 C51.407552,17.9479164 51.3867188,17.8821619 51.3710938,17.8027344 C51.3554687,17.7233069 51.342448,17.6406254 51.3320312,17.5546875 C51.2643226,17.6250004 51.1881515,17.692057 51.1035156,17.7558594 C51.0188798,17.8196618 50.9264328,17.8756508 50.8261719,17.9238281 C50.725911,17.9720054 50.6171881,18.0097655 50.5,18.0371094 C50.3828119,18.0644533 50.2591152,18.078125 50.1289062,18.078125 C49.9127593,18.078125 49.7167978,18.0455732 49.5410156,17.9804688 C49.3652335,17.9153643 49.2154954,17.8268235 49.0917969,17.7148438 C48.9680983,17.602864 48.8723962,17.4707039 48.8046875,17.3183594 C48.7369788,17.1660149 48.703125,17.002605 48.703125,16.828125 C48.703125,16.6015614 48.7473954,16.4016936 48.8359375,16.2285156 C48.9244796,16.0553377 49.0514315,15.9101568 49.2167969,15.7929688 C49.3821623,15.6757807 49.5820301,15.5872399 49.8164062,15.5273438 C50.0507824,15.4674476 50.3124986,15.4375 50.6015625,15.4375 L51.3203125,15.4375 L51.3203125,15.1054688 C51.3203125,14.8528633 51.2447924,14.6516935 51.09375,14.5019531 C50.9427076,14.3522128 50.7200536,14.2773438 50.4257812,14.2773438 C50.2903639,14.2773438 50.1666672,14.2955727 50.0546875,14.3320312 C49.9427078,14.3684898 49.8470056,14.4173174 49.7675781,14.4785156 C49.6881506,14.5397138 49.6263023,14.6106767 49.5820312,14.6914062 C49.5377602,14.7721358 49.515625,14.8567704 49.515625,14.9453125 L48.7890625,14.9453125 C48.7890625,14.7942701 48.8287756,14.644532 48.9082031,14.4960938 C48.9876306,14.3476555 49.1002597,14.2141933 49.2460938,14.0957031 C49.3919278,13.9772129 49.5683583,13.8808597 49.7753906,13.8066406 C49.9824229,13.7324215 50.2135404,13.6953125 50.46875,13.6953125 C50.6979178,13.6953125 50.9095042,13.7246091 51.1035156,13.7832031 C51.297527,13.8417972 51.463541,13.9303379 51.6015625,14.0488281 C51.739584,14.1673183 51.8476559,14.3151033 51.9257812,14.4921875 C52.0039066,14.6692717 52.0429688,14.8763009 52.0429688,15.1132812 L52.0429688,17.078125 C52.0429688,17.2213549 52.0553384,17.371744 52.0800781,17.5292969 C52.1048178,17.6868497 52.1419268,17.8229161 52.1914062,17.9375 L52.1914062,18 L51.4335938,18 Z M50.234375,17.4492188 C50.364584,17.4492188 50.4869786,17.4309898 50.6015625,17.3945312 C50.7161464,17.3580727 50.820312,17.3105472 50.9140625,17.2519531 C51.007813,17.1933591 51.0891924,17.1263025 51.1582031,17.0507812 C51.2272139,16.97526 51.2812498,16.8971358 51.3203125,16.8164062 L51.3203125,15.9492188 L50.71875,15.9492188 C50.3046854,15.9492188 49.9856782,16.0136712 49.7617188,16.1425781 C49.5377593,16.271485 49.4257812,16.4661445 49.4257812,16.7265625 C49.4257812,16.8281255 49.4427082,16.9231766 49.4765625,17.0117188 C49.5104168,17.1002609 49.5618486,17.176432 49.6308594,17.2402344 C49.6998701,17.3040368 49.7845047,17.3548175 49.8847656,17.3925781 C49.9850265,17.4303387 50.1015618,17.4492188 50.234375,17.4492188 L50.234375,17.4492188 Z M52.5039062,15.8515625 C52.5039062,15.5286442 52.5423173,15.2350274 52.6191406,14.9707031 C52.6959639,14.7063789 52.8066399,14.4798187 52.9511719,14.2910156 C53.0957038,14.1022126 53.2708323,13.9557297 53.4765625,13.8515625 C53.6822927,13.7473953 53.9140612,13.6953125 54.171875,13.6953125 C54.4401055,13.6953125 54.6731761,13.742187 54.8710938,13.8359375 C55.0690114,13.929688 55.2382805,14.0651033 55.3789062,14.2421875 L55.4140625,13.7734375 L56.0742188,13.7734375 L56.0742188,17.9101562 C56.0742188,18.1888035 56.0305994,18.4368479 55.9433594,18.6542969 C55.8561194,18.8717459 55.7330737,19.0553378 55.5742188,19.2050781 C55.4153638,19.3548185 55.2265636,19.4687496 55.0078125,19.546875 C54.7890614,19.6250004 54.5468763,19.6640625 54.28125,19.6640625 C54.1718745,19.6640625 54.0462247,19.6516928 53.9042969,19.6269531 C53.7623691,19.6022134 53.6191413,19.5618492 53.4746094,19.5058594 C53.3300774,19.4498695 53.1914069,19.3750005 53.0585938,19.28125 C52.9257806,19.1874995 52.8125005,19.0716153 52.71875,18.9335938 L53.09375,18.5 C53.1822921,18.6093755 53.273437,18.7005205 53.3671875,18.7734375 C53.460938,18.8463545 53.5553381,18.9049477 53.6503906,18.9492188 C53.7454432,18.9934898 53.8417964,19.0253905 53.9394531,19.0449219 C54.0371099,19.0644532 54.1341141,19.0742188 54.2304688,19.0742188 C54.3997404,19.0742188 54.5533847,19.0501304 54.6914062,19.0019531 C54.8294278,18.9537758 54.9472651,18.8815109 55.0449219,18.7851562 C55.1425786,18.6888016 55.2174477,18.5709642 55.2695312,18.4316406 C55.3216148,18.292317 55.3476562,18.1302093 55.3476562,17.9453125 L55.3476562,17.578125 C55.2070305,17.7395841 55.0397145,17.8632808 54.8457031,17.9492188 C54.6516917,18.0351567 54.4244805,18.078125 54.1640625,18.078125 C53.9114571,18.078125 53.6829437,18.0247401 53.4785156,17.9179688 C53.2740875,17.8111974 53.0996101,17.6621103 52.9550781,17.4707031 C52.8105462,17.2792959 52.6992191,17.0527357 52.6210938,16.7910156 C52.5429684,16.5292956 52.5039062,16.2434911 52.5039062,15.9335938 L52.5039062,15.8515625 Z M53.2304688,15.9335938 C53.2304688,16.1445323 53.2519529,16.343098 53.2949219,16.5292969 C53.3378908,16.7154957 53.4042964,16.8776035 53.4941406,17.015625 C53.5839848,17.1536465 53.699218,17.2630204 53.8398438,17.34375 C53.9804695,17.4244796 54.1484365,17.4648438 54.34375,17.4648438 C54.4713548,17.4648438 54.586588,17.4492189 54.6894531,17.4179688 C54.7923182,17.3867186 54.8847652,17.3437503 54.9667969,17.2890625 C55.0488285,17.2343747 55.1210934,17.1692712 55.1835938,17.09375 C55.2460941,17.0182288 55.300781,16.9348963 55.3476562,16.84375 L55.3476562,14.9140625 C55.300781,14.8281246 55.2460941,14.7480472 55.1835938,14.6738281 C55.1210934,14.599609 55.0488285,14.5351565 54.9667969,14.4804688 C54.8847652,14.425781 54.7929693,14.3834637 54.6914062,14.3535156 C54.5898432,14.3235676 54.4765631,14.3085938 54.3515625,14.3085938 C54.1536448,14.3085938 53.9843757,14.349609 53.84375,14.4316406 C53.7031243,14.5136723 53.58724,14.6249993 53.4960938,14.765625 C53.4049475,14.9062507 53.3378908,15.0696605 53.2949219,15.2558594 C53.2519529,15.4420582 53.2304688,15.6406239 53.2304688,15.8515625 L53.2304688,15.9335938 Z M58.4179688,18.078125 C58.1236964,18.078125 57.8574231,18.0273443 57.6191406,17.9257812 C57.3808582,17.8242182 57.1770842,17.6829436 57.0078125,17.5019531 C56.8385408,17.3209626 56.7083338,17.10547 56.6171875,16.8554688 C56.5260412,16.6054675 56.4804688,16.3320327 56.4804688,16.0351562 L56.4804688,15.8710938 C56.4804688,15.527342 56.5319005,15.2200534 56.6347656,14.9492188 C56.7376307,14.6783841 56.8749991,14.4505218 57.046875,14.265625 C57.2187509,14.0807282 57.4153635,13.9394536 57.6367188,13.8417969 C57.858074,13.7441401 58.0885405,13.6953125 58.328125,13.6953125 C58.6302098,13.6953125 58.8906239,13.7480463 59.109375,13.8535156 C59.3281261,13.9589849 59.5084628,14.1041657 59.6503906,14.2890625 C59.7923184,14.4739593 59.8971351,14.6927071 59.9648438,14.9453125 C60.0325524,15.1979179 60.0664062,15.4726548 60.0664062,15.7695312 L60.0664062,16.09375 L57.203125,16.09375 C57.2083334,16.2890635 57.2402341,16.4713533 57.2988281,16.640625 C57.3574222,16.8098967 57.4407547,16.9570306 57.5488281,17.0820312 C57.6569016,17.2070319 57.7871086,17.3059892 57.9394531,17.3789062 C58.0917976,17.4518233 58.264322,17.4882812 58.4570312,17.4882812 C58.7122409,17.4882812 58.9283845,17.4361984 59.1054688,17.3320312 C59.282553,17.2278641 59.4374993,17.0898446 59.5703125,16.9179688 L60.0117188,17.2617188 C59.9440101,17.3658859 59.8619796,17.4667964 59.765625,17.5644531 C59.6692704,17.6621099 59.5566413,17.7493486 59.4277344,17.8261719 C59.2988275,17.9029952 59.1510425,17.9641925 58.984375,18.0097656 C58.8177075,18.0553388 58.6289073,18.078125 58.4179688,18.078125 L58.4179688,18.078125 Z M58.328125,14.2890625 C58.1822909,14.2890625 58.0481777,14.3157549 57.9257812,14.3691406 C57.8033848,14.4225263 57.6940109,14.4999995 57.5976562,14.6015625 C57.5013016,14.7031255 57.4212243,14.8294263 57.3574219,14.9804688 C57.2936195,15.1315112 57.2500001,15.3046865 57.2265625,15.5 L59.34375,15.5 L59.34375,15.4453125 C59.3359375,15.3046868 59.3131512,15.1653653 59.2753906,15.0273438 C59.23763,14.8893222 59.1790369,14.7656255 59.0996094,14.65625 C59.0201819,14.5468745 58.9179694,14.4583337 58.7929688,14.390625 C58.6679681,14.3229163 58.5130218,14.2890625 58.328125,14.2890625 L58.328125,14.2890625 Z M61.0820312,13.7734375 L61.1015625,14.2421875 C61.2473966,14.0703116 61.4238271,13.9361984 61.6308594,13.8398438 C61.8378917,13.7434891 62.0794257,13.6953125 62.3554688,13.6953125 C62.6289076,13.6953125 62.8704417,13.7493484 63.0800781,13.8574219 C63.2897146,13.9654953 63.4505203,14.1380196 63.5625,14.375 C63.7031257,14.171874 63.8860666,14.0078131 64.1113281,13.8828125 C64.3365897,13.7578119 64.602863,13.6953125 64.9101562,13.6953125 C65.1367199,13.6953125 65.3372387,13.7246091 65.5117188,13.7832031 C65.6861988,13.8417972 65.8339838,13.9335931 65.9550781,14.0585938 C66.0761725,14.1835944 66.1679684,14.342447 66.2304688,14.5351562 C66.2929691,14.7278655 66.3242188,14.9570299 66.3242188,15.2226562 L66.3242188,18 L65.6015625,18 L65.6015625,15.21875 C65.6015625,15.0416658 65.5800783,14.8945318 65.5371094,14.7773438 C65.4941404,14.6601557 65.4335941,14.5664066 65.3554688,14.4960938 C65.2773434,14.4257809 65.1822922,14.3769533 65.0703125,14.3496094 C64.9583328,14.3222655 64.8346361,14.3085938 64.6992188,14.3085938 C64.5507805,14.3085938 64.4192714,14.332031 64.3046875,14.3789062 C64.1901036,14.4257815 64.0917973,14.4889319 64.0097656,14.5683594 C63.927734,14.6477869 63.8626304,14.7415359 63.8144531,14.8496094 C63.7662758,14.9576828 63.7356771,15.0729161 63.7226562,15.1953125 L63.7226562,18 L62.9960938,18 L62.9960938,15.2226562 C62.9960938,15.0585929 62.9746096,14.9186204 62.9316406,14.8027344 C62.8886717,14.6868484 62.8281254,14.5924483 62.75,14.5195312 C62.6718746,14.4466142 62.5774745,14.3932293 62.4667969,14.359375 C62.3561192,14.3255207 62.2317715,14.3085938 62.09375,14.3085938 C61.8359362,14.3085938 61.628907,14.3645828 61.4726562,14.4765625 C61.3164055,14.5885422 61.1992191,14.7343741 61.1210938,14.9140625 L61.1210938,18 L60.3984375,18 L60.3984375,13.7734375 L61.0820312,13.7734375 Z M68.6679688,18.078125 C68.3736964,18.078125 68.1074231,18.0273443 67.8691406,17.9257812 C67.6308582,17.8242182 67.4270842,17.6829436 67.2578125,17.5019531 C67.0885408,17.3209626 66.9583338,17.10547 66.8671875,16.8554688 C66.7760412,16.6054675 66.7304688,16.3320327 66.7304688,16.0351562 L66.7304688,15.8710938 C66.7304688,15.527342 66.7819005,15.2200534 66.8847656,14.9492188 C66.9876307,14.6783841 67.1249991,14.4505218 67.296875,14.265625 C67.4687509,14.0807282 67.6653635,13.9394536 67.8867188,13.8417969 C68.108074,13.7441401 68.3385405,13.6953125 68.578125,13.6953125 C68.8802098,13.6953125 69.1406239,13.7480463 69.359375,13.8535156 C69.5781261,13.9589849 69.7584628,14.1041657 69.9003906,14.2890625 C70.0423184,14.4739593 70.1471351,14.6927071 70.2148438,14.9453125 C70.2825524,15.1979179 70.3164062,15.4726548 70.3164062,15.7695312 L70.3164062,16.09375 L67.453125,16.09375 C67.4583334,16.2890635 67.4902341,16.4713533 67.5488281,16.640625 C67.6074222,16.8098967 67.6907547,16.9570306 67.7988281,17.0820312 C67.9069016,17.2070319 68.0371086,17.3059892 68.1894531,17.3789062 C68.3417976,17.4518233 68.514322,17.4882812 68.7070312,17.4882812 C68.9622409,17.4882812 69.1783845,17.4361984 69.3554688,17.3320312 C69.532553,17.2278641 69.6874993,17.0898446 69.8203125,16.9179688 L70.2617188,17.2617188 C70.1940101,17.3658859 70.1119796,17.4667964 70.015625,17.5644531 C69.9192704,17.6621099 69.8066413,17.7493486 69.6777344,17.8261719 C69.5488275,17.9029952 69.4010425,17.9641925 69.234375,18.0097656 C69.0677075,18.0553388 68.8789073,18.078125 68.6679688,18.078125 L68.6679688,18.078125 Z M68.578125,14.2890625 C68.4322909,14.2890625 68.2981777,14.3157549 68.1757812,14.3691406 C68.0533848,14.4225263 67.9440109,14.4999995 67.8476562,14.6015625 C67.7513016,14.7031255 67.6712243,14.8294263 67.6074219,14.9804688 C67.5436195,15.1315112 67.5000001,15.3046865 67.4765625,15.5 L69.59375,15.5 L69.59375,15.4453125 C69.5859375,15.3046868 69.5631512,15.1653653 69.5253906,15.0273438 C69.48763,14.8893222 69.4290369,14.7656255 69.3496094,14.65625 C69.2701819,14.5468745 69.1679694,14.4583337 69.0429688,14.390625 C68.9179681,14.3229163 68.7630218,14.2890625 68.578125,14.2890625 L68.578125,14.2890625 Z M71.3359375,13.7734375 L71.359375,14.3046875 C71.5104174,14.1145824 71.6927073,13.9654953 71.90625,13.8574219 C72.1197927,13.7493484 72.3593737,13.6953125 72.625,13.6953125 C72.8307302,13.6953125 73.0169262,13.723307 73.1835938,13.7792969 C73.3502613,13.8352867 73.4921869,13.9251296 73.609375,14.0488281 C73.7265631,14.1725267 73.817057,14.3313792 73.8808594,14.5253906 C73.9446618,14.719402 73.9765625,14.9544257 73.9765625,15.2304688 L73.9765625,18 L73.2539062,18 L73.2539062,15.2226562 C73.2539062,15.0585929 73.2356773,14.9186204 73.1992188,14.8027344 C73.1627602,14.6868484 73.1087243,14.5924483 73.0371094,14.5195312 C72.9654944,14.4466142 72.8769537,14.3932293 72.7714844,14.359375 C72.6660151,14.3255207 72.5442715,14.3085938 72.40625,14.3085938 C72.1718738,14.3085938 71.9661467,14.3710931 71.7890625,14.4960938 C71.6119783,14.6210944 71.4739588,14.7851552 71.375,14.9882812 L71.375,18 L70.6523438,18 L70.6523438,13.7734375 L71.3359375,13.7734375 Z M75.546875,12.75 L75.546875,13.7734375 L76.3359375,13.7734375 L76.3359375,14.3320312 L75.546875,14.3320312 L75.546875,16.953125 C75.546875,17.0625005 75.5598957,17.1503903 75.5859375,17.2167969 C75.6119793,17.2832035 75.6464842,17.3346352 75.6894531,17.3710938 C75.7324221,17.4075523 75.7819008,17.4316406 75.8378906,17.4433594 C75.8938805,17.4550782 75.9518226,17.4609375 76.0117188,17.4609375 C76.0716149,17.4609375 76.1347653,17.4550782 76.2011719,17.4433594 C76.2675785,17.4316406 76.3190102,17.421875 76.3554688,17.4140625 L76.3554688,18 C76.2981768,18.0156251 76.2239588,18.032552 76.1328125,18.0507812 C76.0416662,18.0690105 75.9309902,18.078125 75.8007812,18.078125 C75.6679681,18.078125 75.5423183,18.059245 75.4238281,18.0214844 C75.3053379,17.9837238 75.2018234,17.9205734 75.1132812,17.8320312 C75.0247391,17.7434891 74.9544273,17.6269538 74.9023438,17.4824219 C74.8502602,17.3378899 74.8242188,17.1601573 74.8242188,16.9492188 L74.8242188,14.3320312 L74.0546875,14.3320312 L74.0546875,13.7734375 L74.8242188,13.7734375 L74.8242188,12.75 L75.546875,12.75 Z M35.2265625,21.7734375 L35.2460938,22.2421875 C35.3919278,22.0703116 35.5683583,21.9361984 35.7753906,21.8398438 C35.9824229,21.7434891 36.223957,21.6953125 36.5,21.6953125 C36.7734389,21.6953125 37.0149729,21.7493484 37.2246094,21.8574219 C37.4342458,21.9654953 37.5950515,22.1380196 37.7070312,22.375 C37.847657,22.171874 38.0305978,22.0078131 38.2558594,21.8828125 C38.4811209,21.7578119 38.7473943,21.6953125 39.0546875,21.6953125 C39.2812511,21.6953125 39.48177,21.7246091 39.65625,21.7832031 C39.83073,21.8417972 39.978515,21.9335931 40.0996094,22.0585938 C40.2207037,22.1835944 40.3124997,22.342447 40.375,22.5351562 C40.4375003,22.7278655 40.46875,22.9570299 40.46875,23.2226562 L40.46875,26 L39.7460938,26 L39.7460938,23.21875 C39.7460938,23.0416658 39.7246096,22.8945318 39.6816406,22.7773438 C39.6386717,22.6601557 39.5781254,22.5664066 39.5,22.4960938 C39.4218746,22.4257809 39.3268235,22.3769533 39.2148438,22.3496094 C39.102864,22.3222655 38.9791673,22.3085938 38.84375,22.3085938 C38.6953118,22.3085938 38.5638027,22.332031 38.4492188,22.3789062 C38.3346348,22.4257815 38.2363285,22.4889319 38.1542969,22.5683594 C38.0722652,22.6477869 38.0071617,22.7415359 37.9589844,22.8496094 C37.9108071,22.9576828 37.8802084,23.0729161 37.8671875,23.1953125 L37.8671875,26 L37.140625,26 L37.140625,23.2226562 C37.140625,23.0585929 37.1191408,22.9186204 37.0761719,22.8027344 C37.0332029,22.6868484 36.9726566,22.5924483 36.8945312,22.5195312 C36.8164059,22.4466142 36.7220058,22.3932293 36.6113281,22.359375 C36.5006505,22.3255207 36.3763028,22.3085938 36.2382812,22.3085938 C35.9804675,22.3085938 35.7734383,22.3645828 35.6171875,22.4765625 C35.4609367,22.5885422 35.3437504,22.7343741 35.265625,22.9140625 L35.265625,26 L34.5429688,26 L34.5429688,21.7734375 L35.2265625,21.7734375 Z M43.6679688,26 C43.641927,25.9479164 43.6210938,25.8821619 43.6054688,25.8027344 C43.5898437,25.7233069 43.576823,25.6406254 43.5664062,25.5546875 C43.4986976,25.6250004 43.4225265,25.692057 43.3378906,25.7558594 C43.2532548,25.8196618 43.1608078,25.8756508 43.0605469,25.9238281 C42.960286,25.9720054 42.8515631,26.0097655 42.734375,26.0371094 C42.6171869,26.0644533 42.4934902,26.078125 42.3632812,26.078125 C42.1471343,26.078125 41.9511728,26.0455732 41.7753906,25.9804688 C41.5996085,25.9153643 41.4498704,25.8268235 41.3261719,25.7148438 C41.2024733,25.602864 41.1067712,25.4707039 41.0390625,25.3183594 C40.9713538,25.1660149 40.9375,25.002605 40.9375,24.828125 C40.9375,24.6015614 40.9817704,24.4016936 41.0703125,24.2285156 C41.1588546,24.0553377 41.2858065,23.9101568 41.4511719,23.7929688 C41.6165373,23.6757807 41.8164051,23.5872399 42.0507812,23.5273438 C42.2851574,23.4674476 42.5468736,23.4375 42.8359375,23.4375 L43.5546875,23.4375 L43.5546875,23.1054688 C43.5546875,22.8528633 43.4791674,22.6516935 43.328125,22.5019531 C43.1770826,22.3522128 42.9544286,22.2773438 42.6601562,22.2773438 C42.5247389,22.2773438 42.4010422,22.2955727 42.2890625,22.3320312 C42.1770828,22.3684898 42.0813806,22.4173174 42.0019531,22.4785156 C41.9225256,22.5397138 41.8606773,22.6106767 41.8164062,22.6914062 C41.7721352,22.7721358 41.75,22.8567704 41.75,22.9453125 L41.0234375,22.9453125 C41.0234375,22.7942701 41.0631506,22.644532 41.1425781,22.4960938 C41.2220056,22.3476555 41.3346347,22.2141933 41.4804688,22.0957031 C41.6263028,21.9772129 41.8027333,21.8808597 42.0097656,21.8066406 C42.2167979,21.7324215 42.4479154,21.6953125 42.703125,21.6953125 C42.9322928,21.6953125 43.1438792,21.7246091 43.3378906,21.7832031 C43.531902,21.8417972 43.697916,21.9303379 43.8359375,22.0488281 C43.973959,22.1673183 44.0820309,22.3151033 44.1601562,22.4921875 C44.2382816,22.6692717 44.2773438,22.8763009 44.2773438,23.1132812 L44.2773438,25.078125 C44.2773438,25.2213549 44.2897134,25.371744 44.3144531,25.5292969 C44.3391928,25.6868497 44.3763018,25.8229161 44.4257812,25.9375 L44.4257812,26 L43.6679688,26 Z M42.46875,25.4492188 C42.598959,25.4492188 42.7213536,25.4309898 42.8359375,25.3945312 C42.9505214,25.3580727 43.054687,25.3105472 43.1484375,25.2519531 C43.242188,25.1933591 43.3235674,25.1263025 43.3925781,25.0507812 C43.4615889,24.97526 43.5156248,24.8971358 43.5546875,24.8164062 L43.5546875,23.9492188 L42.953125,23.9492188 C42.5390604,23.9492188 42.2200532,24.0136712 41.9960938,24.1425781 C41.7721343,24.271485 41.6601562,24.4661445 41.6601562,24.7265625 C41.6601562,24.8281255 41.6770832,24.9231766 41.7109375,25.0117188 C41.7447918,25.1002609 41.7962236,25.176432 41.8652344,25.2402344 C41.9342451,25.3040368 42.0188797,25.3548175 42.1191406,25.3925781 C42.2194015,25.4303387 42.3359368,25.4492188 42.46875,25.4492188 L42.46875,25.4492188 Z M44.734375,23.8515625 C44.734375,23.5286442 44.7740881,23.2350274 44.8535156,22.9707031 C44.9329431,22.7063789 45.0455722,22.4798187 45.1914062,22.2910156 C45.3372403,22.1022126 45.5123688,21.9557297 45.7167969,21.8515625 C45.921225,21.7473953 46.1497383,21.6953125 46.4023438,21.6953125 C46.6601575,21.6953125 46.8854157,21.7389319 47.078125,21.8261719 C47.2708343,21.9134119 47.4374993,22.0390617 47.578125,22.203125 L47.578125,20 L48.3007812,20 L48.3007812,26 L47.6367188,26 L47.6015625,25.546875 C47.4609368,25.7187509 47.2916677,25.85026 47.09375,25.9414062 C46.8958323,26.0325525 46.6627618,26.078125 46.3945312,26.078125 C46.1471342,26.078125 45.921225,26.0247401 45.7167969,25.9179688 C45.5123688,25.8111974 45.3372403,25.6621103 45.1914062,25.4707031 C45.0455722,25.2792959 44.9329431,25.0527357 44.8535156,24.7910156 C44.7740881,24.5292956 44.734375,24.2434911 44.734375,23.9335938 L44.734375,23.8515625 Z M45.4570312,23.9335938 C45.4570312,24.1445323 45.4785154,24.343098 45.5214844,24.5292969 C45.5644533,24.7154957 45.63151,24.8776035 45.7226562,25.015625 C45.8138025,25.1536465 45.9296868,25.2630204 46.0703125,25.34375 C46.2109382,25.4244796 46.3789053,25.4648438 46.5742188,25.4648438 C46.7018236,25.4648438 46.8164057,25.4498699 46.9179688,25.4199219 C47.0195318,25.3899738 47.1113277,25.3476565 47.1933594,25.2929688 C47.275391,25.238281 47.348307,25.1731775 47.4121094,25.0976562 C47.4759118,25.022135 47.5312498,24.9388025 47.578125,24.8476562 L47.578125,22.90625 C47.5312498,22.8203121 47.4765628,22.7408858 47.4140625,22.6679688 C47.3515622,22.5950517 47.2792973,22.5319013 47.1972656,22.4785156 C47.115234,22.4251299 47.023438,22.3834637 46.921875,22.3535156 C46.820312,22.3235676 46.7070319,22.3085938 46.5820312,22.3085938 C46.3841136,22.3085938 46.2141934,22.349609 46.0722656,22.4316406 C45.9303378,22.5136723 45.8138025,22.6249993 45.7226562,22.765625 C45.63151,22.9062507 45.5644533,23.0696605 45.5214844,23.2558594 C45.4785154,23.4420582 45.4570312,23.6406239 45.4570312,23.8515625 L45.4570312,23.9335938 Z M50.6757812,26.078125 C50.3815089,26.078125 50.1152356,26.0273443 49.8769531,25.9257812 C49.6386707,25.8242182 49.4348967,25.6829436 49.265625,25.5019531 C49.0963533,25.3209626 48.9661463,25.10547 48.875,24.8554688 C48.7838537,24.6054675 48.7382812,24.3320327 48.7382812,24.0351562 L48.7382812,23.8710938 C48.7382812,23.527342 48.789713,23.2200534 48.8925781,22.9492188 C48.9954432,22.6783841 49.1328116,22.4505218 49.3046875,22.265625 C49.4765634,22.0807282 49.673176,21.9394536 49.8945312,21.8417969 C50.1158865,21.7441401 50.346353,21.6953125 50.5859375,21.6953125 C50.8880223,21.6953125 51.1484364,21.7480463 51.3671875,21.8535156 C51.5859386,21.9589849 51.7662753,22.1041657 51.9082031,22.2890625 C52.0501309,22.4739593 52.1549476,22.6927071 52.2226562,22.9453125 C52.2903649,23.1979179 52.3242188,23.4726548 52.3242188,23.7695312 L52.3242188,24.09375 L49.4609375,24.09375 C49.4661459,24.2890635 49.4980466,24.4713533 49.5566406,24.640625 C49.6152347,24.8098967 49.6985672,24.9570306 49.8066406,25.0820312 C49.9147141,25.2070319 50.0449211,25.3059892 50.1972656,25.3789062 C50.3496101,25.4518233 50.5221345,25.4882812 50.7148438,25.4882812 C50.9700534,25.4882812 51.186197,25.4361984 51.3632812,25.3320312 C51.5403655,25.2278641 51.6953118,25.0898446 51.828125,24.9179688 L52.2695312,25.2617188 C52.2018226,25.3658859 52.1197921,25.4667964 52.0234375,25.5644531 C51.9270829,25.6621099 51.8144538,25.7493486 51.6855469,25.8261719 C51.55664,25.9029952 51.408855,25.9641925 51.2421875,26.0097656 C51.07552,26.0553388 50.8867198,26.078125 50.6757812,26.078125 L50.6757812,26.078125 Z M50.5859375,22.2890625 C50.4401034,22.2890625 50.3059902,22.3157549 50.1835938,22.3691406 C50.0611973,22.4225263 49.9518234,22.4999995 49.8554688,22.6015625 C49.7591141,22.7031255 49.6790368,22.8294263 49.6152344,22.9804688 C49.551432,23.1315112 49.5078126,23.3046865 49.484375,23.5 L51.6015625,23.5 L51.6015625,23.4453125 C51.59375,23.3046868 51.5709637,23.1653653 51.5332031,23.0273438 C51.4954425,22.8893222 51.4368494,22.7656255 51.3574219,22.65625 C51.2779944,22.5468745 51.1757819,22.4583337 51.0507812,22.390625 C50.9257806,22.3229163 50.7708343,22.2890625 50.5859375,22.2890625 L50.5859375,22.2890625 Z M55.8945312,26.078125 C55.6002589,26.078125 55.3339856,26.0273443 55.0957031,25.9257812 C54.8574207,25.8242182 54.6536467,25.6829436 54.484375,25.5019531 C54.3151033,25.3209626 54.1848963,25.10547 54.09375,24.8554688 C54.0026037,24.6054675 53.9570312,24.3320327 53.9570312,24.0351562 L53.9570312,23.8710938 C53.9570312,23.527342 54.008463,23.2200534 54.1113281,22.9492188 C54.2141932,22.6783841 54.3515616,22.4505218 54.5234375,22.265625 C54.6953134,22.0807282 54.891926,21.9394536 55.1132812,21.8417969 C55.3346365,21.7441401 55.565103,21.6953125 55.8046875,21.6953125 C56.1067723,21.6953125 56.3671864,21.7480463 56.5859375,21.8535156 C56.8046886,21.9589849 56.9850253,22.1041657 57.1269531,22.2890625 C57.2688809,22.4739593 57.3736976,22.6927071 57.4414062,22.9453125 C57.5091149,23.1979179 57.5429688,23.4726548 57.5429688,23.7695312 L57.5429688,24.09375 L54.6796875,24.09375 C54.6848959,24.2890635 54.7167966,24.4713533 54.7753906,24.640625 C54.8339847,24.8098967 54.9173172,24.9570306 55.0253906,25.0820312 C55.1334641,25.2070319 55.2636711,25.3059892 55.4160156,25.3789062 C55.5683601,25.4518233 55.7408845,25.4882812 55.9335938,25.4882812 C56.1888034,25.4882812 56.404947,25.4361984 56.5820312,25.3320312 C56.7591155,25.2278641 56.9140618,25.0898446 57.046875,24.9179688 L57.4882812,25.2617188 C57.4205726,25.3658859 57.3385421,25.4667964 57.2421875,25.5644531 C57.1458329,25.6621099 57.0332038,25.7493486 56.9042969,25.8261719 C56.77539,25.9029952 56.627605,25.9641925 56.4609375,26.0097656 C56.29427,26.0553388 56.1054698,26.078125 55.8945312,26.078125 L55.8945312,26.078125 Z M55.8046875,22.2890625 C55.6588534,22.2890625 55.5247402,22.3157549 55.4023438,22.3691406 C55.2799473,22.4225263 55.1705734,22.4999995 55.0742188,22.6015625 C54.9778641,22.7031255 54.8977868,22.8294263 54.8339844,22.9804688 C54.770182,23.1315112 54.7265626,23.3046865 54.703125,23.5 L56.8203125,23.5 L56.8203125,23.4453125 C56.8125,23.3046868 56.7897137,23.1653653 56.7519531,23.0273438 C56.7141925,22.8893222 56.6555994,22.7656255 56.5761719,22.65625 C56.4967444,22.5468745 56.3945319,22.4583337 56.2695312,22.390625 C56.1445306,22.3229163 55.9895843,22.2890625 55.8046875,22.2890625 L55.8046875,22.2890625 Z M60.4882812,26 C60.4622395,25.9479164 60.4414063,25.8821619 60.4257812,25.8027344 C60.4101562,25.7233069 60.3971355,25.6406254 60.3867188,25.5546875 C60.3190101,25.6250004 60.242839,25.692057 60.1582031,25.7558594 C60.0735673,25.8196618 59.9811203,25.8756508 59.8808594,25.9238281 C59.7805985,25.9720054 59.6718756,26.0097655 59.5546875,26.0371094 C59.4374994,26.0644533 59.3138027,26.078125 59.1835938,26.078125 C58.9674468,26.078125 58.7714853,26.0455732 58.5957031,25.9804688 C58.419921,25.9153643 58.2701829,25.8268235 58.1464844,25.7148438 C58.0227858,25.602864 57.9270837,25.4707039 57.859375,25.3183594 C57.7916663,25.1660149 57.7578125,25.002605 57.7578125,24.828125 C57.7578125,24.6015614 57.8020829,24.4016936 57.890625,24.2285156 C57.9791671,24.0553377 58.106119,23.9101568 58.2714844,23.7929688 C58.4368498,23.6757807 58.6367176,23.5872399 58.8710938,23.5273438 C59.1054699,23.4674476 59.3671861,23.4375 59.65625,23.4375 L60.375,23.4375 L60.375,23.1054688 C60.375,22.8528633 60.2994799,22.6516935 60.1484375,22.5019531 C59.9973951,22.3522128 59.7747411,22.2773438 59.4804688,22.2773438 C59.3450514,22.2773438 59.2213547,22.2955727 59.109375,22.3320312 C58.9973953,22.3684898 58.9016931,22.4173174 58.8222656,22.4785156 C58.7428381,22.5397138 58.6809898,22.6106767 58.6367188,22.6914062 C58.5924477,22.7721358 58.5703125,22.8567704 58.5703125,22.9453125 L57.84375,22.9453125 C57.84375,22.7942701 57.8834631,22.644532 57.9628906,22.4960938 C58.0423181,22.3476555 58.1549472,22.2141933 58.3007812,22.0957031 C58.4466153,21.9772129 58.6230458,21.8808597 58.8300781,21.8066406 C59.0371104,21.7324215 59.2682279,21.6953125 59.5234375,21.6953125 C59.7526053,21.6953125 59.9641917,21.7246091 60.1582031,21.7832031 C60.3522145,21.8417972 60.5182285,21.9303379 60.65625,22.0488281 C60.7942715,22.1673183 60.9023434,22.3151033 60.9804688,22.4921875 C61.0585941,22.6692717 61.0976562,22.8763009 61.0976562,23.1132812 L61.0976562,25.078125 C61.0976562,25.2213549 61.1100259,25.371744 61.1347656,25.5292969 C61.1595053,25.6868497 61.1966143,25.8229161 61.2460938,25.9375 L61.2460938,26 L60.4882812,26 Z M59.2890625,25.4492188 C59.4192715,25.4492188 59.5416661,25.4309898 59.65625,25.3945312 C59.7708339,25.3580727 59.8749995,25.3105472 59.96875,25.2519531 C60.0625005,25.1933591 60.1438799,25.1263025 60.2128906,25.0507812 C60.2819014,24.97526 60.3359373,24.8971358 60.375,24.8164062 L60.375,23.9492188 L59.7734375,23.9492188 C59.3593729,23.9492188 59.0403657,24.0136712 58.8164062,24.1425781 C58.5924468,24.271485 58.4804688,24.4661445 58.4804688,24.7265625 C58.4804688,24.8281255 58.4973957,24.9231766 58.53125,25.0117188 C58.5651043,25.1002609 58.6165361,25.176432 58.6855469,25.2402344 C58.7545576,25.3040368 58.8391922,25.3548175 58.9394531,25.3925781 C59.039714,25.4303387 59.1562493,25.4492188 59.2890625,25.4492188 L59.2890625,25.4492188 Z M64.1914062,24.8789062 C64.1914062,24.8007809 64.1796876,24.7272139 64.15625,24.6582031 C64.1328124,24.5891924 64.0865889,24.5240888 64.0175781,24.4628906 C63.9485674,24.4016924 63.8502611,24.3450523 63.7226562,24.2929688 C63.5950514,24.2408852 63.4270844,24.1927086 63.21875,24.1484375 C62.9843738,24.0989581 62.7734384,24.0403649 62.5859375,23.9726562 C62.3984366,23.9049476 62.2389329,23.8235682 62.1074219,23.7285156 C61.9759108,23.6334631 61.8750004,23.520834 61.8046875,23.390625 C61.7343746,23.260416 61.6992188,23.1080738 61.6992188,22.9335938 C61.6992188,22.7669263 61.7363278,22.6087247 61.8105469,22.4589844 C61.884766,22.309244 61.9895827,22.1777349 62.125,22.0644531 C62.2604173,21.9511713 62.4244782,21.8613285 62.6171875,21.7949219 C62.8098968,21.7285153 63.0247384,21.6953125 63.2617188,21.6953125 C63.5143242,21.6953125 63.7402334,21.7298174 63.9394531,21.7988281 C64.1386729,21.8678389 64.307942,21.962239 64.4472656,22.0820312 C64.5865892,22.2018235 64.692708,22.3417961 64.765625,22.5019531 C64.838542,22.6621102 64.875,22.8333324 64.875,23.015625 L64.1484375,23.015625 C64.1484375,22.9296871 64.1289064,22.8430994 64.0898438,22.7558594 C64.0507811,22.6686194 63.99349,22.5904951 63.9179688,22.5214844 C63.8424475,22.4524736 63.7500005,22.3964846 63.640625,22.3535156 C63.5312495,22.3105467 63.4049486,22.2890625 63.2617188,22.2890625 C63.1106763,22.2890625 62.9824224,22.3066404 62.8769531,22.3417969 C62.7714838,22.3769533 62.6848962,22.4238278 62.6171875,22.4824219 C62.5494788,22.5410159 62.5000002,22.6074215 62.46875,22.6816406 C62.4374998,22.7558597 62.421875,22.8320309 62.421875,22.9101562 C62.421875,22.9882816 62.4348957,23.0585934 62.4609375,23.1210938 C62.4869793,23.1835941 62.536458,23.2402341 62.609375,23.2910156 C62.682292,23.3417971 62.7819004,23.3886717 62.9082031,23.4316406 C63.0345058,23.4746096 63.1979157,23.5182289 63.3984375,23.5625 C63.6562513,23.6223961 63.8802074,23.6901038 64.0703125,23.765625 C64.2604176,23.8411462 64.4179681,23.929036 64.5429688,24.0292969 C64.6679694,24.1295578 64.7610674,24.244791 64.8222656,24.375 C64.8834638,24.505209 64.9140625,24.6562491 64.9140625,24.828125 C64.9140625,25.0130218 64.8756514,25.1822909 64.7988281,25.3359375 C64.7220048,25.4895841 64.6119799,25.6210932 64.46875,25.7304688 C64.3255201,25.8398443 64.1536468,25.9251299 63.953125,25.9863281 C63.7526032,26.0475263 63.5299491,26.078125 63.2851562,26.078125 C63.0039048,26.078125 62.7558604,26.0390629 62.5410156,25.9609375 C62.3261708,25.8828121 62.1458341,25.7792975 62,25.6503906 C61.8541659,25.5214837 61.74349,25.3743498 61.6679688,25.2089844 C61.5924475,25.043619 61.5546875,24.8736988 61.5546875,24.6992188 L62.2773438,24.6992188 C62.2851563,24.847657 62.3209632,24.9720047 62.3847656,25.0722656 C62.448568,25.1725265 62.5286454,25.2539059 62.625,25.3164062 C62.7213546,25.3789066 62.8268223,25.423177 62.9414062,25.4492188 C63.0559902,25.4752605 63.1705723,25.4882812 63.2851562,25.4882812 C63.4335945,25.4882812 63.5638015,25.4726564 63.6757812,25.4414062 C63.787761,25.4101561 63.8821611,25.3671878 63.9589844,25.3125 C64.0358077,25.2578122 64.0937498,25.1933597 64.1328125,25.1191406 C64.1718752,25.0449215 64.1914062,24.9648442 64.1914062,24.8789062 L64.1914062,24.8789062 Z M66.7382812,24.9414062 L67.7226562,21.7734375 L68.4960938,21.7734375 L66.796875,26.6523438 C66.7578123,26.7565109 66.7070316,26.8697911 66.6445312,26.9921875 C66.5820309,27.1145839 66.5006515,27.2285151 66.4003906,27.3339844 C66.3001297,27.4394537 66.1796882,27.5279944 66.0390625,27.5996094 C65.8984368,27.6712243 65.7330739,27.7070312 65.5429688,27.7070312 C65.5143228,27.7070312 65.4804689,27.7044271 65.4414062,27.6992188 C65.4023436,27.6940104 65.3632814,27.6881511 65.3242188,27.6816406 C65.2851561,27.6751302 65.2486981,27.6686198 65.2148438,27.6621094 C65.1809894,27.6555989 65.154948,27.6497396 65.1367188,27.6445312 L65.1367188,27.0585938 C65.1471355,27.0611979 65.1614582,27.063151 65.1796875,27.0644531 C65.1979168,27.0657552 65.2167968,27.0670573 65.2363281,27.0683594 C65.2558595,27.0696615 65.2740885,27.0709635 65.2910156,27.0722656 C65.3079428,27.0735677 65.3216145,27.0742188 65.3320312,27.0742188 C65.4544277,27.0742188 65.5624995,27.0625001 65.65625,27.0390625 C65.7500005,27.0156249 65.833333,26.9772138 65.90625,26.9238281 C65.979167,26.8704424 66.0423174,26.7994796 66.0957031,26.7109375 C66.1490888,26.6223954 66.1979164,26.5130215 66.2421875,26.3828125 L66.4023438,25.953125 L64.8945312,21.7734375 L65.6835938,21.7734375 L66.7382812,24.9414062 Z" id="tag-" fill="#FFFFFF" opacity="0.600000024"></path>
                        <polygon id="Polygon-1" fill="#1678EA" points="13 0 25.9903811 7.5 25.9903811 22.5 13 30 0.00961894323 22.5 0.00961894323 7.5"></polygon>
                        <path d="M5,16.7142857 L7.66666667,16.7142857 L7.66666667,21 L5,21 L5,16.7142857 Z M9.44444444,15 L12.1111111,15 L12.1111111,21 L9.44444444,21 L9.44444444,15 Z M13.8888889,11.5714286 L16.5555556,11.5714286 L16.5555556,21 L13.8888889,21 L13.8888889,11.5714286 Z M18.3333333,9 L21,9 L21,21 L18.3333333,21 L18.3333333,9 Z" id="Combined-Shape" fill="#FFFFFF"></path>
                    </g>
                </g>
            </g>
        </g>
    </g>
</svg>