<?xml version="1.0" encoding="utf-8"?>
<!-- Generator: Adobe Illustrator 18.1.1, SVG Export Plug-In . SVG Version: 6.00 Build 0)  -->
<svg version="1.1" id="Calque_1" xmlns="http://www.w3.org/2000/svg" xmlns:xlink="http://www.w3.org/1999/xlink" x="0px" y="0px"
	 viewBox="0 0 150.7 167" enable-background="new 0 0 150.7 167" xml:space="preserve">
<g>
	<path id="path-1_4_" fill="#FFFFFF" fill-opacity="0.4" stroke="#FFFFFF" stroke-width="1.6" stroke-opacity="0.6" d="M41.5,4.6
		l102.7,27.5c1.3,0.4,2.1,1.7,1.8,3.1l-34.1,127.1c-0.4,1.3-1.7,2.1-3.1,1.8L6.1,136.6c-1.3-0.4-2.1-1.7-1.8-3.1L38.4,6.4
		C38.8,5,40.1,4.2,41.5,4.6z"/>
	
		<rect id="Rectangle-103_57_" x="34" y="72.1" transform="matrix(-0.9659 -0.2588 0.2588 -0.9659 133.9514 165.9685)" fill="#FFFFFF" width="87.8" height="4.2"/>
	
		<rect id="Rectangle-103_56_" x="45.4" y="29.7" transform="matrix(-0.9659 -0.2588 0.2588 -0.9659 167.2265 85.6356)" fill="#FFFFFF" width="87.8" height="4.2"/>
	
		<rect id="Rectangle-103_55_" x="31.2" y="82.2" transform="matrix(-0.9659 -0.2588 0.2588 -0.9659 122.5408 184.771)" fill="#FFFFFF" width="84.4" height="4.2"/>
	
		<rect id="Rectangle-103_54_" x="42.5" y="40.3" transform="matrix(-0.9659 -0.2588 0.2588 -0.9659 158.9077 105.7188)" fill="#FFFFFF" width="87.8" height="4.2"/>
	
		<rect id="Rectangle-103_53_" x="28.3" y="93.2" transform="matrix(-0.9659 -0.2588 0.2588 -0.9659 117.3139 206.1349)" fill="#FFFFFF" width="87.8" height="4.2"/>
	
		<rect id="Rectangle-103_52_" x="39.8" y="50.2" transform="matrix(-0.9659 -0.2588 0.2588 -0.9659 145.9511 123.881)" fill="#FFFFFF" width="82.7" height="4.2"/>
	
		<rect id="Rectangle-103_51_" x="25.6" y="103.5" transform="matrix(-0.9659 -0.2588 0.2588 -0.9659 106.6763 225.2576)" fill="#FFFFFF" width="85.2" height="4.2"/>
	
		<rect id="Rectangle-103_50_" x="36.9" y="61.5" transform="matrix(-0.9659 -0.2588 0.2588 -0.9659 142.2702 145.8853)" fill="#FFFFFF" width="87.8" height="4.2"/>
	
		<rect id="Rectangle-103_49_" x="22.8" y="113.5" transform="matrix(-0.9659 -0.2588 0.2588 -0.9659 94.4927 243.7399)" fill="#FFFFFF" width="81" height="4.2"/>
	
		<rect id="Rectangle-103_48_" x="19.9" y="124.7" transform="matrix(-0.9659 -0.2588 0.2588 -0.9659 90.0388 265.4241)" fill="#FFFFFF" width="85.2" height="4.2"/>
	
		<rect id="Rectangle-103_47_" x="17.3" y="133.4" transform="matrix(-0.9659 -0.2588 0.2588 -0.9659 68.5796 280.0643)" fill="#FFFFFF" width="70.9" height="4.2"/>
</g>
</svg>
