<?xml version="1.0" encoding="utf-8"?>
<!-- Generator: Adobe Illustrator 18.1.1, SVG Export Plug-In . SVG Version: 6.00 Build 0)  -->
<svg version="1.1" id="Calque_1" xmlns="http://www.w3.org/2000/svg" xmlns:xlink="http://www.w3.org/1999/xlink" x="0px" y="0px"
	 viewBox="409 195 142 170" enable-background="new 409 195 142 170" xml:space="preserve">
<g>
	<path id="path-5_4_" fill="#73AEF2" stroke="#FFFFFF" stroke-width="2" stroke-opacity="0.6" d="M417,200h126c1.7,0,3,1.3,3,3v156
		c0,1.7-1.3,3-3,3H417c-1.7,0-3-1.3-3-3V203C414,201.3,415.3,200,417,200z"/>
	<rect id="Rectangle-101_8_" x="428" y="214" fill="#FFFFFF" fill-opacity="0.4" width="43" height="43"/>
	<rect id="Rectangle-101_3_" x="479" y="214" fill="#FFFFFF" fill-opacity="0.4" width="53" height="95"/>
	<rect id="Rectangle-103_35_" x="428" y="265" fill="#FFFFFF" width="43" height="5"/>
	<rect id="Rectangle-103_34_" x="428" y="278" fill="#FFFFFF" width="43" height="5"/>
	<rect id="Rectangle-103_33_" x="428" y="291" fill="#FFFFFF" width="43" height="5"/>
	<rect id="Rectangle-103_32_" x="428" y="304" fill="#FFFFFF" width="43" height="5"/>
	<rect id="Rectangle-103_31_" x="428" y="317" fill="#FFFFFF" width="104" height="5"/>
	<rect id="Rectangle-103_30_" x="428" y="330" fill="#FFFFFF" width="101" height="5"/>
	<rect id="Rectangle-103_29_" x="428" y="343" fill="#FFFFFF" width="84" height="5"/>
</g>
</svg>
