<?xml version="1.0" encoding="UTF-8" standalone="no"?>
<svg width="170px" height="79px" viewBox="0 0 170 79" version="1.1" xmlns="http://www.w3.org/2000/svg" xmlns:xlink="http://www.w3.org/1999/xlink">
    <!-- Generator: Sketch 3.8.3 (29802) - http://www.bohemiancoding.com/sketch -->
    <title>logo-light</title>
    <desc>Created with Sketch.</desc>
    <defs>
        <rect id="path-1" x="35.5955056" y="8.70098039" width="4.85393258" height="4.89430147"></rect>
        <mask id="mask-2" maskContentUnits="userSpaceOnUse" maskUnits="objectBoundingBox" x="0" y="0" width="4.85393258" height="4.89430147" fill="white">
            <use xlink:href="#path-1"></use>
        </mask>
        <rect id="path-3" x="34.5168539" y="9.24479167" width="1.07865169" height="1.08762255"></rect>
        <mask id="mask-4" maskContentUnits="userSpaceOnUse" maskUnits="objectBoundingBox" x="0" y="0" width="1.07865169" height="1.08762255" fill="white">
            <use xlink:href="#path-3"></use>
        </mask>
        <linearGradient x1="50%" y1="100%" x2="50%" y2="0%" id="linearGradient-5">
            <stop stop-color="#1678EA" offset="0%"></stop>
            <stop stop-color="#00489C" offset="100%"></stop>
        </linearGradient>
        <rect id="path-6" x="29.6629213" y="8.70098039" width="4.85393258" height="4.89430147"></rect>
        <mask id="mask-7" maskContentUnits="userSpaceOnUse" maskUnits="objectBoundingBox" x="0" y="0" width="4.85393258" height="4.89430147" fill="white">
            <use xlink:href="#path-6"></use>
        </mask>
    </defs>
    <g id="Page-1" stroke="none" stroke-width="1" fill="none" fill-rule="evenodd">
        <g id="logo-light">
            <g id="Group" transform="translate(12.000000, 14.000000)">
                <use id="Rectangle-1123" stroke="#FFFFFF" mask="url(#mask-2)" stroke-width="2.18400005" xlink:href="#path-1"></use>
                <use id="Rectangle-1125" stroke="#FFFFFF" mask="url(#mask-4)" stroke-width="1.09200002" xlink:href="#path-3"></use>
                <path d="M8.41292843,29.4116972 L19.0186096,0.498139625 L21.3718399,6.62345138 L47.7124298,13.2447785 C47.7124298,13.2447785 46.0259831,19.5825165 41.0972612,20.7158107 C36.1685393,21.8491049 25.9834972,23.5495773 25.9834972,23.5495773 C25.9834972,23.5495773 30.1946825,37.7141988 30.1946825,49.259567 C30.1946825,49.259567 8.41292843,29.4116972 8.41292843,29.4116972 Z" id="Path-1174" fill="#ABCEF7"></path>
                <path d="M7.56600282,28.9681181 C7.56664367,28.968771 7.56696629,28.9691017 7.56696629,28.9691017 L7.56541826,28.9690482 C7.37885997,29.2658067 5.99229807,31.3908784 4.28468098,31.8166351 C2.4479045,32.2745949 0.601959157,30.9269505 0.601959157,30.9269505 C0.601959157,30.9269505 1.80466673,30.0521737 3.97940284,29.4696878 C5.33992111,29.1052837 6.4099981,28.9874082 7.02055887,28.9502234 L0.522826632,28.7257278 C0.522826632,28.7257278 1.94448562,26.9715397 3.7813786,26.9715396 C5.4733628,26.9715396 7.26020488,28.6663659 7.53159586,28.9337687 C7.56803737,28.9339959 7.58677455,28.934616 7.58677455,28.934616 C7.58677455,28.934616 7.57972908,28.9462713 7.56600282,28.9681181 Z M7.40308989,28.7313499 L29.3579705,38.2711485 C29.3579705,38.2711485 29.8704354,39.1957339 30.4266152,49.660118 C30.4266152,49.660118 7.40308989,28.7313499 7.40308989,28.7313499 Z" id="Combined-Shape" fill="#FFFFFF"></path>
                <ellipse id="Oval-145" fill="url(#linearGradient-5)" cx="28.7980756" cy="11.9381127" rx="1.40417155" ry="1.06188725"></ellipse>
                <use id="Rectangle-1123" stroke="#FFFFFF" mask="url(#mask-7)" stroke-width="2.18400005" xlink:href="#path-6"></use>
                <path d="M25.754389,23.4778834 C25.754389,23.4778834 39.2757198,13.3406359 47.6926791,13.3406359 C47.6926791,13.3406359 46.4660288,17.9709977 43.0046524,19.978426 C39.543276,21.9858544 25.754389,23.4778834 25.754389,23.4778834 Z" id="Path-1175" fill="#73AEF2"></path>
                <polygon id="Path-1176" fill="#FFFFFF" points="47.709138 13.1943273 46.7932321 15.584654 43.6428634 12.1882233"></polygon>
                <path d="M30.0200771,9.70609282 C30.0200771,9.70609282 21.9701463,8.2238178 20.0456461,8.66048663 C18.1211459,9.09715547 17.9237623,9.73708965 18.2004038,11.2053535" id="Path-1177" stroke="#FFFFFF" stroke-width="1.09200002"></path>
            </g>
            <path d="M77.656,29.188 C77.656,27.9559938 77.3106701,27.00867 76.62,26.346 C75.9293299,25.68333 75.1360045,25.352 74.24,25.352 C73.3439955,25.352 72.5506701,25.6879966 71.86,26.36 C71.1693299,27.0320034 70.824,27.9839938 70.824,29.216 C70.824,30.4480062 71.1693299,31.39533 71.86,32.058 C72.5506701,32.72067 73.3439955,33.052 74.24,33.052 C75.1360045,33.052 75.9293299,32.7160034 76.62,32.044 C77.3106701,31.3719966 77.656,30.4200062 77.656,29.188 L77.656,29.188 Z M65.952,29.216 C65.952,26.882655 66.6426598,24.9646742 68.024,23.462 C69.4053402,21.9593258 71.0899901,21.208 73.078,21.208 C75.0660099,21.208 76.5919947,21.945326 77.656,23.42 L77.656,16.28 L82.444,16.28 L82.444,37 L77.656,37 L77.656,34.732 C76.4986609,36.3746749 74.949343,37.196 73.008,37.196 C71.066657,37.196 69.4053402,36.4493408 68.024,34.956 C66.6426598,33.4626592 65.952,31.549345 65.952,29.216 L65.952,29.216 Z M95.45,29.188 C95.45,27.9559938 95.1046701,27.00867 94.414,26.346 C93.7233299,25.68333 92.9300045,25.352 92.034,25.352 C91.1379955,25.352 90.3446701,25.6879966 89.654,26.36 C88.9633299,27.0320034 88.618,27.9839938 88.618,29.216 C88.618,30.4480062 88.9633299,31.39533 89.654,32.058 C90.3446701,32.72067 91.1379955,33.052 92.034,33.052 C92.9300045,33.052 93.7233299,32.7160034 94.414,32.044 C95.1046701,31.3719966 95.45,30.4200062 95.45,29.188 L95.45,29.188 Z M83.746,29.216 C83.746,26.882655 84.4366598,24.9646742 85.818,23.462 C87.1993402,21.9593258 88.8839901,21.208 90.872,21.208 C92.8600099,21.208 94.3859947,21.945326 95.45,23.42 L95.45,21.376 L100.238,21.376 L100.238,37 L95.45,37 L95.45,34.732 C94.2926609,36.3746749 92.743343,37.196 90.802,37.196 C88.860657,37.196 87.1993402,36.4493408 85.818,34.956 C84.4366598,33.4626592 83.746,31.549345 83.746,29.216 L83.746,29.216 Z M109.324,32.94 L111.032,32.94 L111.032,37 L108.596,37 C106.841325,37 105.483338,36.6126705 104.522,35.838 C103.560662,35.0633295 103.08,33.7333428 103.08,31.848 L103.08,25.352 L101.624,25.352 L101.624,21.376 L103.08,21.376 L103.08,17.568 L107.868,17.568 L107.868,21.376 L111.004,21.376 L111.004,25.352 L107.868,25.352 L107.868,31.848 C107.868,32.5760036 108.353328,32.94 109.324,32.94 L109.324,32.94 Z M123.114,29.188 C123.114,27.9559938 122.76867,27.00867 122.078,26.346 C121.38733,25.68333 120.594004,25.352 119.698,25.352 C118.801996,25.352 118.00867,25.6879966 117.318,26.36 C116.62733,27.0320034 116.282,27.9839938 116.282,29.216 C116.282,30.4480062 116.62733,31.39533 117.318,32.058 C118.00867,32.72067 118.801996,33.052 119.698,33.052 C120.594004,33.052 121.38733,32.7160034 122.078,32.044 C122.76867,31.3719966 123.114,30.4200062 123.114,29.188 L123.114,29.188 Z M111.41,29.216 C111.41,26.882655 112.10066,24.9646742 113.482,23.462 C114.86334,21.9593258 116.54799,21.208 118.536,21.208 C120.52401,21.208 122.049995,21.945326 123.114,23.42 L123.114,21.376 L127.902,21.376 L127.902,37 L123.114,37 L123.114,34.732 C121.956661,36.3746749 120.407343,37.196 118.466,37.196 C116.524657,37.196 114.86334,36.4493408 113.482,34.956 C112.10066,33.4626592 111.41,31.549345 111.41,29.216 L111.41,29.216 Z M71.888,41.28 L71.888,48.672 C72.8773383,47.0293251 74.4546558,46.208 76.62,46.208 C78.412009,46.208 79.8633278,46.8053274 80.974,48 C82.0846722,49.1946726 82.64,50.8186564 82.64,52.872 L82.64,62 L77.88,62 L77.88,53.516 C77.88,52.507995 77.6140027,51.7286694 77.082,51.178 C76.5499973,50.6273306 75.817338,50.352 74.884,50.352 C73.950662,50.352 73.2180027,50.6273306 72.686,51.178 C72.1539973,51.7286694 71.888,52.507995 71.888,53.516 L71.888,62 L67.1,62 L67.1,41.28 L71.888,41.28 Z M95.282,54.188 C95.282,52.9186603 94.9553366,51.95267 94.302,51.29 C93.6486634,50.62733 92.8740045,50.296 91.978,50.296 C91.0819955,50.296 90.3120032,50.62733 89.668,51.29 C89.0239968,51.95267 88.702,52.9186603 88.702,54.188 C88.702,55.4573397 89.03333,56.4279966 89.696,57.1 C90.35867,57.7720034 91.1379955,58.108 92.034,58.108 C92.9300045,58.108 93.6953302,57.7720034 94.33,57.1 C94.9646698,56.4279966 95.282,55.4573397 95.282,54.188 L95.282,54.188 Z M83.83,54.16 C83.83,51.751988 84.6139922,49.8246739 86.182,48.378 C87.7500078,46.9313261 89.6913218,46.208 92.006,46.208 C94.3206782,46.208 96.2573255,46.9313261 97.816,48.378 C99.3746745,49.8246739 100.154,51.751988 100.154,54.16 C100.154,56.568012 99.3793411,58.509326 97.83,59.984 C96.2806589,61.458674 94.3486782,62.196 92.034,62.196 C89.7193218,62.196 87.7733412,61.458674 86.196,59.984 C84.6186588,58.509326 83.83,56.568012 83.83,54.16 L83.83,54.16 Z M112.096,46.376 L116.884,46.376 L116.884,62 L112.096,62 L112.096,59.704 C111.106662,61.3466749 109.529344,62.168 107.364,62.168 C105.571991,62.168 104.120672,61.5706726 103.01,60.376 C101.899328,59.1813274 101.344,57.5573436 101.344,55.504 L101.344,46.376 L106.104,46.376 L106.104,54.86 C106.104,55.868005 106.369997,56.6473306 106.902,57.198 C107.434003,57.7486694 108.166662,58.024 109.1,58.024 C110.033338,58.024 110.765997,57.7486694 111.298,57.198 C111.830003,56.6473306 112.096,55.868005 112.096,54.86 L112.096,46.376 Z M124.122,46.376 L124.122,48.672 C125.111338,47.0293251 126.688656,46.208 128.854,46.208 C130.646009,46.208 132.097328,46.8053274 133.208,48 C134.318672,49.1946726 134.874,50.8186564 134.874,52.872 L134.874,62 L130.114,62 L130.114,53.516 C130.114,52.507995 129.848003,51.7286694 129.316,51.178 C128.783997,50.6273306 128.051338,50.352 127.118,50.352 C126.184662,50.352 125.452003,50.6273306 124.92,51.178 C124.387997,51.7286694 124.122,52.507995 124.122,53.516 L124.122,62 L119.334,62 L119.334,46.376 L124.122,46.376 Z M147.74,54.188 C147.74,52.9559938 147.39467,52.00867 146.704,51.346 C146.01333,50.68333 145.220004,50.352 144.324,50.352 C143.427996,50.352 142.63467,50.6879966 141.944,51.36 C141.25333,52.0320034 140.908,52.9839938 140.908,54.216 C140.908,55.4480062 141.25333,56.39533 141.944,57.058 C142.63467,57.72067 143.427996,58.052 144.324,58.052 C145.220004,58.052 146.01333,57.7160034 146.704,57.044 C147.39467,56.3719966 147.74,55.4200062 147.74,54.188 L147.74,54.188 Z M136.036,54.216 C136.036,51.882655 136.72666,49.9646742 138.108,48.462 C139.48934,46.9593258 141.17399,46.208 143.162,46.208 C145.15001,46.208 146.675995,46.945326 147.74,48.42 L147.74,41.28 L152.528,41.28 L152.528,62 L147.74,62 L147.74,59.732 C146.582661,61.3746749 145.033343,62.196 143.092,62.196 C141.150657,62.196 139.48934,61.4493408 138.108,59.956 C136.72666,58.4626592 136.036,56.549345 136.036,54.216 Z M107.870002,14.8000002 L103.080002,17.6000001 L107.870002,17.6000001 L107.870002,14.8000002 Z" id="Combined-Shape" fill="#FFFFFF"></path>
        </g>
    </g>
</svg>