<?xml version="1.0" encoding="UTF-8" standalone="no"?>
<svg width="140px" height="27px" viewBox="0 0 140 27" version="1.1" xmlns="http://www.w3.org/2000/svg" xmlns:xlink="http://www.w3.org/1999/xlink">
    <!-- Generator: Sketch 3.8.3 (29802) - http://www.bohemiancoding.com/sketch -->
    <title>logo</title>
    <desc>Created with Sketch.</desc>
    <defs></defs>
    <g id="Page-1" stroke="none" stroke-width="1" fill="none" fill-rule="evenodd">
        <g id="Desktop" transform="translate(-46.000000, -36.000000)" fill="#FFFFFF">
            <g id="HERO">
                <g id="HEADER" transform="translate(46.000000, 31.000000)">
                    <g id="logo" transform="translate(0.000000, 5.000000)">
                        <path d="M18.9525161,10.64 C18.9525161,9.45599408 19.4565111,8.464004 20.4645161,7.664 C21.4725212,6.863996 22.8365075,6.464 24.5565161,6.464 C26.2765247,6.464 27.6645108,6.85599608 28.7205161,7.64 C29.7765214,8.42400392 30.3365158,9.4959932 30.4005161,10.856 L26.2005161,10.856 C26.1525159,10.3919977 25.9925175,10.0760008 25.7205161,9.908 C25.4485148,9.73999916 25.0405188,9.656 24.4965161,9.656 C23.4245108,9.656 22.8885161,9.98399672 22.8885161,10.64 C22.8885161,11.232003 23.5445096,11.6399989 24.8565161,11.864 C26.1845228,12.0880011 27.3925107,12.4319977 28.4805161,12.896 C29.0405189,13.1200011 29.5085142,13.4919974 29.8845161,14.012 C30.260518,14.5320026 30.4485161,15.1679962 30.4485161,15.92 C30.4485161,17.1680062 29.9125215,18.187996 28.8405161,18.98 C27.7685108,19.772004 26.4165243,20.168 24.7845161,20.168 C23.152508,20.168 21.7925216,19.7960037 20.7045161,19.052 C19.6165107,18.3079963 19.0245166,17.2080073 18.9285161,15.752 L23.1285161,15.752 C23.2405167,16.5680041 23.8165109,16.976 24.8565161,16.976 C25.3365185,16.976 25.7325146,16.8640011 26.0445161,16.64 C26.3565177,16.4159989 26.5125161,16.1280018 26.5125161,15.776 C26.5125161,15.4239982 26.2525187,15.144001 25.7325161,14.936 C25.2125135,14.727999 24.5845198,14.5520007 23.8485161,14.408 C23.1125124,14.2639993 22.3725198,14.0840011 21.6285161,13.868 C20.8845124,13.6519989 20.2525187,13.2760027 19.7325161,12.74 C19.2125135,12.2039973 18.9525161,11.5040043 18.9525161,10.64 L18.9525161,10.64 Z M33.7245161,5.792 C33.0525128,5.792 32.4845184,5.56000232 32.0205161,5.096 C31.5565138,4.63199768 31.3245161,4.0600034 31.3245161,3.38 C31.3245161,2.6999966 31.5565138,2.12800232 32.0205161,1.664 C32.4845184,1.19999768 33.0525128,0.968 33.7245161,0.968 C34.3965195,0.968 34.9645138,1.19999768 35.4285161,1.664 C35.8925184,2.12800232 36.1245161,2.6999966 36.1245161,3.38 C36.1245161,4.0600034 35.8925184,4.63199768 35.4285161,5.096 C34.9645138,5.56000232 34.3965195,5.792 33.7245161,5.792 L33.7245161,5.792 Z M31.6845161,20 L31.6845161,6.608 L35.7885161,6.608 L35.7885161,20 L31.6845161,20 Z M41.9925161,6.608 L41.9925161,8.576 C42.8405204,7.16799296 44.1925068,6.464 46.0485161,6.464 C47.0405211,6.464 47.9245122,6.68799776 48.7005161,7.136 C49.47652,7.58400224 50.080514,8.22399584 50.5125161,9.056 C51.0085186,8.27199608 51.6525122,7.64400236 52.4445161,7.172 C53.2365201,6.69999764 54.1205112,6.464 55.0965161,6.464 C56.7285243,6.464 58.0245113,6.96799496 58.9845161,7.976 C59.9445209,8.98400504 60.4245161,10.383991 60.4245161,12.176 L60.4245161,20 L56.3445161,20 L56.3445161,12.728 C56.3445161,11.8639957 56.1165184,11.1960024 55.6605161,10.724 C55.2045138,10.2519976 54.5765201,10.016 53.7765161,10.016 C52.9765121,10.016 52.3485184,10.2519976 51.8925161,10.724 C51.4365138,11.1960024 51.2085161,11.8639957 51.2085161,12.728 L51.2085161,20 L47.1285161,20 L47.1285161,12.728 C47.1285161,11.8639957 46.9005184,11.1960024 46.4445161,10.724 C45.9885138,10.2519976 45.3605201,10.016 44.5605161,10.016 C43.7605121,10.016 43.1325184,10.2519976 42.6765161,10.724 C42.2205138,11.1960024 41.9925161,11.8639957 41.9925161,12.728 L41.9925161,20 L37.8885161,20 L37.8885161,6.608 L41.9925161,6.608 Z M72.3645161,13.328 C72.3645161,12.2719947 72.0685191,11.4560029 71.4765161,10.88 C70.8845132,10.3039971 70.20452,10.016 69.4365161,10.016 C68.6685123,10.016 67.9885191,10.2999972 67.3965161,10.868 C66.8045132,11.4360028 66.5085161,12.2479947 66.5085161,13.304 C66.5085161,14.3600053 66.8045132,15.1759971 67.3965161,15.752 C67.9885191,16.3280029 68.6685123,16.616 69.4365161,16.616 C70.20452,16.616 70.8845132,16.3320028 71.4765161,15.764 C72.0685191,15.1959972 72.3645161,14.3840053 72.3645161,13.328 L72.3645161,13.328 Z M66.5085161,8.36 C67.4205207,7.09599368 68.7285076,6.464 70.4325161,6.464 C72.1365246,6.464 73.5805102,7.10799356 74.7645161,8.396 C75.948522,9.68400644 76.5405161,11.32799 76.5405161,13.328 C76.5405161,15.32801 75.948522,16.9679936 74.7645161,18.248 C73.5805102,19.5280064 72.1485245,20.168 70.4685161,20.168 C68.7885077,20.168 67.4685209,19.464007 66.5085161,18.056 L66.5085161,26.384 L62.4045161,26.384 L62.4045161,6.608 L66.5085161,6.608 L66.5085161,8.36 Z M77.6565161,20 L77.6565161,2.24 L81.7605161,2.24 L81.7605161,20 L77.6565161,20 Z M89.5485161,20.168 C87.5965064,20.168 85.9965224,19.5400063 84.7485161,18.284 C83.5005099,17.0279937 82.8765161,15.3600104 82.8765161,13.28 C82.8765161,11.1999896 83.4965099,9.54400616 84.7365161,8.312 C85.9765223,7.07999384 87.5805063,6.464 89.5485161,6.464 C91.516526,6.464 93.1485096,7.07199392 94.4445161,8.288 C95.7405226,9.50400608 96.3885161,11.1919892 96.3885161,13.352 C96.3885161,13.8160023 96.3565164,14.247998 96.2925161,14.648 L87.0765161,14.648 C87.1565165,15.240003 87.4205139,15.7239981 87.8685161,16.1 C88.3165184,16.4760019 88.8005135,16.664 89.3205161,16.664 C89.8405187,16.664 90.2285148,16.6120005 90.4845161,16.508 C90.7405174,16.4039995 90.9285155,16.3000005 91.0485161,16.196 C91.1685167,16.0919995 91.3245152,15.9200012 91.5165161,15.68 L95.9565161,15.68 C95.5725142,17.0240067 94.8045219,18.1079959 93.6525161,18.932 C92.5005104,19.7560041 91.132524,20.168 89.5485161,20.168 L89.5485161,20.168 Z M91.3005161,10.556 C90.8205137,10.163998 90.2525194,9.968 89.5965161,9.968 C88.9405128,9.968 88.3885184,10.163998 87.9405161,10.556 C87.4925139,10.948002 87.2125167,11.4559969 87.1005161,12.08 L92.1165161,12.08 C92.0525158,11.4559969 91.7805185,10.948002 91.3005161,10.556 L91.3005161,10.556 Z M103.216516,16.52 L104.680516,16.52 L104.680516,20 L102.592516,20 C101.088509,20 99.9245202,19.6680033 99.1005161,19.004 C98.276512,18.3399967 97.8645161,17.2000081 97.8645161,15.584 L97.8645161,10.016 L96.6165161,10.016 L96.6165161,6.608 L97.8645161,6.608 L97.8645161,3.344 L101.968516,3.344 L101.968516,6.608 L104.656516,6.608 L104.656516,10.016 L101.968516,10.016 L101.968516,15.584 C101.968516,16.2080031 102.384512,16.52 103.216516,16.52 L103.216516,16.52 Z M115.036516,13.304 C115.036516,12.2479947 114.740519,11.4360028 114.148516,10.868 C113.556513,10.2999972 112.87652,10.016 112.108516,10.016 C111.340512,10.016 110.660519,10.3039971 110.068516,10.88 C109.476513,11.4560029 109.180516,12.2719947 109.180516,13.328 C109.180516,14.3840053 109.476513,15.1959972 110.068516,15.764 C110.660519,16.3320028 111.340512,16.616 112.108516,16.616 C112.87652,16.616 113.556513,16.3280029 114.148516,15.752 C114.740519,15.1759971 115.036516,14.3600053 115.036516,13.304 L115.036516,13.304 Z M105.004516,13.328 C105.004516,11.32799 105.59651,9.68400644 106.780516,8.396 C107.964522,7.10799356 109.408508,6.464 111.112516,6.464 C112.816525,6.464 114.124512,7.09599368 115.036516,8.36 L115.036516,6.608 L119.140516,6.608 L119.140516,20 L115.036516,20 L115.036516,18.056 C114.044511,19.464007 112.716524,20.168 111.052516,20.168 C109.388508,20.168 107.964522,19.5280064 106.780516,18.248 C105.59651,16.9679936 105.004516,15.32801 105.004516,13.328 L105.004516,13.328 Z M120.256516,13.328 C120.256516,11.32799 120.84851,9.68400644 122.032516,8.396 C123.216522,7.10799356 124.660508,6.464 126.364516,6.464 C128.068525,6.464 129.376512,7.09599368 130.288516,8.36 L130.288516,6.608 L134.392516,6.608 L134.392516,19.928 C134.392516,21.8000094 133.880521,23.3599938 132.856516,24.608 C132.344514,25.2480032 131.644521,25.7439982 130.756516,26.096 C129.868512,26.4480018 128.840522,26.624 127.672516,26.624 C125.624506,26.624 124.000522,26.2080042 122.800516,25.376 C121.60051,24.5439958 120.920517,23.2720086 120.760516,21.56 L124.792516,21.56 C125.176518,22.568005 126.136508,23.072 127.672516,23.072 C128.42452,23.072 129.048514,22.8200025 129.544516,22.316 C130.040519,21.8119975 130.288516,21.0160054 130.288516,19.928 L130.288516,18.056 C129.296511,19.464007 127.968524,20.168 126.304516,20.168 C124.640508,20.168 123.216522,19.5280064 122.032516,18.248 C120.84851,16.9679936 120.256516,15.32801 120.256516,13.328 L120.256516,13.328 Z M130.288516,13.304 C130.288516,12.2479947 129.992519,11.4360028 129.400516,10.868 C128.808513,10.2999972 128.12852,10.016 127.360516,10.016 C126.592512,10.016 125.912519,10.3039971 125.320516,10.88 C124.728513,11.4560029 124.432516,12.2719947 124.432516,13.328 C124.432516,14.3840053 124.728513,15.1959972 125.320516,15.764 C125.912519,16.3320028 126.592512,16.616 127.360516,16.616 C128.12852,16.616 128.808513,16.3280029 129.400516,15.752 C129.992519,15.1759971 130.288516,14.3600053 130.288516,13.304 L130.288516,13.304 Z M139.372516,19.352 C138.940514,19.7840022 138.408519,20 137.776516,20 C137.144513,20 136.612518,19.7840022 136.180516,19.352 C135.748514,18.9199978 135.532516,18.3880032 135.532516,17.756 C135.532516,17.1239968 135.748514,16.5920022 136.180516,16.16 C136.612518,15.7279978 137.144513,15.512 137.776516,15.512 C138.408519,15.512 138.940514,15.7279978 139.372516,16.16 C139.804518,16.5920022 140.020516,17.1239968 140.020516,17.756 C140.020516,18.3880032 139.804518,18.9199978 139.372516,19.352 L139.372516,19.352 Z" id="simpletag."></path>
                        <g id="Group" transform="translate(0.000000, 5.500000)">
                            <path d="M0,3.99310226 C0,1.78777278 1.79373607,0 4.00741445,0 L10.0427648,0 C12.2559986,0 14.0501792,1.78732987 14.0501792,3.99310226 L14.0501792,10.0068977 C14.0501792,12.2122272 12.2564431,14 10.0427648,14 L4.00741445,14 C1.79418056,14 0,12.2126701 0,10.0068977 L0,3.99310226 Z M2.50896057,8 L4.01433692,8 L4.01433692,10.5 L2.50896057,10.5 L2.50896057,8 Z M5.01792115,7 L6.52329749,7 L6.52329749,10.5 L5.01792115,10.5 L5.01792115,7 Z M7.52688172,5 L9.03225806,5 L9.03225806,10.5 L7.52688172,10.5 L7.52688172,5 Z M10.0358423,3.5 L11.5412186,3.5 L11.5412186,10.5 L10.0358423,10.5 L10.0358423,3.5 Z" id="Combined-Shape"></path>
                        </g>
                    </g>
                </g>
            </g>
        </g>
    </g>
</svg>