<?xml version="1.0" encoding="utf-8"?>
<!-- Generator: Adobe Illustrator 18.1.1, SVG Export Plug-In . SVG Version: 6.00 Build 0)  -->
<svg version="1.1" id="Calque_1" xmlns="http://www.w3.org/2000/svg" xmlns:xlink="http://www.w3.org/1999/xlink" x="0px" y="0px"
	 viewBox="406 197 148 166" enable-background="new 406 197 148 166" xml:space="preserve">
<g>
	<path id="path-3_4_" fill="#FFFFFF" fill-opacity="0.4" stroke="#FFFFFF" stroke-width="1.6" stroke-opacity="0.6" d="M414.3,231.3
		l97.8-26.2c1.3-0.3,2.6,0.4,2.9,1.7l32.4,120.9c0.3,1.3-0.4,2.6-1.7,2.9l-97.8,26.2c-1.3,0.3-2.6-0.4-2.9-1.7l-32.4-120.9
		C412.3,233,413,231.7,414.3,231.3z"/>
	
		<rect id="Rectangle-101_10_" x="429.7" y="234.8" transform="matrix(0.9659 -0.2588 0.2588 0.9659 -50.0115 124.2639)" fill="#FFFFFF" fill-opacity="0.4" width="34.5" height="34.5"/>
	
		<rect id="Rectangle-103_46_" x="435.5" y="268.6" transform="matrix(0.9659 -0.2588 0.2588 0.9659 -53.761 132.7387)" fill="#FFFFFF" width="83.5" height="4"/>
	
		<rect id="Rectangle-103_45_" x="465.1" y="223.7" transform="matrix(0.9659 -0.2588 0.2588 0.9659 -41.8437 133.5704)" fill="#FFFFFF" width="42.6" height="4"/>
	
		<rect id="Rectangle-103_44_" x="438.2" y="279.1" transform="matrix(0.9659 -0.2588 0.2588 0.9659 -56.4407 133.3804)" fill="#FFFFFF" width="80.3" height="4"/>
	
		<rect id="Rectangle-103_43_" x="467.8" y="233.8" transform="matrix(0.9659 -0.2588 0.2588 0.9659 -44.354 134.6103)" fill="#FFFFFF" width="42.6" height="4"/>
	
		<rect id="Rectangle-103_42_" x="440.9" y="288.7" transform="matrix(0.9659 -0.2588 0.2588 0.9659 -58.7817 134.8184)" fill="#FFFFFF" width="83.5" height="4"/>
	
		<rect id="Rectangle-103_41_" x="470.5" y="244.1" transform="matrix(0.9659 -0.2588 0.2588 0.9659 -46.9839 135.3696)" fill="#FFFFFF" width="40.2" height="4"/>
	
		<rect id="Rectangle-103_40_" x="443.6" y="299.1" transform="matrix(0.9659 -0.2588 0.2588 0.9659 -61.4215 135.5536)" fill="#FFFFFF" width="81.1" height="4"/>
	
		<rect id="Rectangle-103_39_" x="473.2" y="254" transform="matrix(0.9659 -0.2588 0.2588 0.9659 -49.3988 136.7)" fill="#FFFFFF" width="42.6" height="4"/>
	
		<rect id="Rectangle-103_38_" x="446.4" y="309.6" transform="matrix(0.9659 -0.2588 0.2588 0.9659 -64.131 136.1259)" fill="#FFFFFF" width="77.1" height="4"/>
	
		<rect id="Rectangle-103_37_" x="449" y="319.3" transform="matrix(0.9659 -0.2588 0.2588 0.9659 -66.4663 137.6433)" fill="#FFFFFF" width="81.1" height="4"/>
	
		<rect id="Rectangle-103_36_" x="451.9" y="331.1" transform="matrix(0.9659 -0.2588 0.2588 0.9659 -69.6498 137.0353)" fill="#FFFFFF" width="67.5" height="4"/>
</g>
</svg>
