<?xml version="1.0" encoding="UTF-8" standalone="no"?>
<svg width="48px" height="48px" viewBox="0 0 48 48" version="1.1" xmlns="http://www.w3.org/2000/svg" xmlns:xlink="http://www.w3.org/1999/xlink">
    <!-- Generator: Sketch 3.8.3 (29802) - http://www.bohemiancoding.com/sketch -->
    <title>illus-element-price</title>
    <desc>Created with Sketch.</desc>
    <defs>
        <linearGradient x1="50%" y1="100%" x2="50%" y2="0%" id="linearGradient-1">
            <stop stop-color="#1678EA" offset="0%"></stop>
            <stop stop-color="#00489C" offset="100%"></stop>
        </linearGradient>
        <circle id="path-2" cx="24" cy="24" r="24"></circle>
        <circle id="path-4" cx="24" cy="24" r="15"></circle>
        <filter x="-50%" y="-50%" width="200%" height="200%" filterUnits="objectBoundingBox" id="filter-5">
            <feOffset dx="0" dy="1" in="SourceAlpha" result="shadowOffsetOuter1"></feOffset>
            <feComposite in="shadowOffsetOuter1" in2="SourceAlpha" operator="out" result="shadowOffsetOuter1"></feComposite>
            <feColorMatrix values="0 0 0 0 0   0 0 0 0 0   0 0 0 0 0  0 0 0 0.1 0" type="matrix" in="shadowOffsetOuter1"></feColorMatrix>
        </filter>
        <mask id="mask-6" maskContentUnits="userSpaceOnUse" maskUnits="objectBoundingBox" x="0" y="0" width="30" height="30" fill="white">
            <use xlink:href="#path-4"></use>
        </mask>
    </defs>
    <g id="Page-1" stroke="none" stroke-width="1" fill="none" fill-rule="evenodd">
        <g id="ILLU" transform="translate(-26.000000, -26.000000)">
            <g id="illus-element-price" transform="translate(26.000000, 26.000000)">
                <mask id="mask-3" fill="white">
                    <use xlink:href="#path-2"></use>
                </mask>
                <use id="Mask" fill="url(#linearGradient-1)" xlink:href="#path-2"></use>
                <g id="Oval-38" mask="url(#mask-3)">
                    <use fill="black" fill-opacity="1" filter="url(#filter-5)" xlink:href="#path-4"></use>
                    <use stroke="#4886CD" mask="url(#mask-6)" stroke-width="10" fill="#73AEF2" fill-rule="evenodd" xlink:href="#path-4"></use>
                </g>
                <path d="M24.8730469,25.3017578 L22.2480469,25.3017578 C22.2571615,25.7711612 22.3198236,26.1790347 22.4360352,26.5253906 C22.5522467,26.8717465 22.7140289,27.1599923 22.9213867,27.3901367 C23.1287445,27.6202811 23.3771144,27.7911778 23.6665039,27.902832 C23.9558934,28.0144862 24.2783185,28.0703125 24.6337891,28.0703125 C24.8981133,28.0703125 25.1544584,28.0509442 25.402832,28.012207 C25.6512057,27.9734699 25.8916004,27.915365 26.1240234,27.8378906 L26.2607422,28.9316406 C26.0055326,28.995443 25.740073,29.0455727 25.4643555,29.0820312 C25.1886379,29.1184898 24.907228,29.1367188 24.6201172,29.1367188 C24.0869114,29.1367188 23.5970074,29.0569669 23.1503906,28.8974609 C22.7037738,28.7379549 22.3186865,28.4986995 21.9951172,28.1796875 C21.6715479,27.8606755 21.4174814,27.4607771 21.2329102,26.9799805 C21.0483389,26.4991838 20.9492188,25.9397818 20.9355469,25.3017578 L19.71875,25.3017578 L19.71875,24.4541016 L20.9355469,24.4541016 L20.9355469,23.5175781 L19.71875,23.5175781 L19.71875,22.6630859 L20.9355469,22.6630859 C20.9583334,22.0432912 21.0631501,21.4987003 21.25,21.0292969 C21.4368499,20.5598935 21.6920557,20.1679703 22.015625,19.8535156 C22.3391943,19.5390609 22.7208637,19.3032234 23.1606445,19.1459961 C23.6004254,18.9887687 24.0846328,18.9101562 24.6132812,18.9101562 C24.9003921,18.9101562 25.1772448,18.9295245 25.4438477,18.9682617 C25.7104506,19.0069989 25.982746,19.0582679 26.2607422,19.1220703 L26.1240234,20.2294922 C25.8961577,20.1565752 25.655763,20.0984703 25.402832,20.0551758 C25.1499011,20.0118813 24.8912774,19.9902344 24.6269531,19.9902344 C24.2760399,19.9902344 23.958172,20.043782 23.6733398,20.1508789 C23.3885077,20.2579758 23.1435557,20.4220367 22.9384766,20.6430664 C22.7333974,20.8640962 22.5716152,21.1420882 22.453125,21.4770508 C22.3346348,21.8120134 22.2685548,22.2073545 22.2548828,22.6630859 L24.8730469,22.6630859 L24.8730469,23.5175781 L22.2480469,23.5175781 L22.2480469,24.4541016 L24.8730469,24.4541016 L24.8730469,25.3017578 Z" id="€" fill="#FFFFFF" mask="url(#mask-3)"></path>
            </g>
        </g>
    </g>
</svg>