<?xml version="1.0" encoding="UTF-8" standalone="no"?>
<svg width="48px" height="48px" viewBox="0 0 48 48" version="1.1" xmlns="http://www.w3.org/2000/svg" xmlns:xlink="http://www.w3.org/1999/xlink">
    <!-- Generator: Sketch 3.8.3 (29802) - http://www.bohemiancoding.com/sketch -->
    <title>illus-element-wishlist</title>
    <desc>Created with Sketch.</desc>
    <defs>
        <linearGradient x1="50%" y1="100%" x2="50%" y2="0%" id="linearGradient-1">
            <stop stop-color="#1678EA" offset="0%"></stop>
            <stop stop-color="#00489C" offset="100%"></stop>
        </linearGradient>
        <path d="M24,48 C37.254834,48 48,37.254834 48,24 C48,10.745166 37.254834,0 24,0 C10.745166,0 0,10.745166 0,24 C0,37.254834 10.745166,48 24,48 Z" id="path-2"></path>
        <path d="M24,37.56 L22.0426975,35.7781798 C15.0908992,29.4743161 10.5013624,25.3032371 10.5013624,20.2142507 C10.5013624,16.0431717 13.7680327,12.79 17.9256131,12.79 C20.274376,12.79 22.5286485,13.8833896 24,15.5977166 C25.4713515,13.8833896 27.725624,12.79 30.0743869,12.79 C34.2319673,12.79 37.4986376,16.0431717 37.4986376,20.2142507 C37.4986376,25.3032371 32.9091008,29.4743161 25.9573025,35.7781798 L24,37.56 L24,37.56 Z" id="path-4"></path>
        <filter x="-50%" y="-50%" width="200%" height="200%" filterUnits="objectBoundingBox" id="filter-5">
            <feOffset dx="0" dy="1" in="SourceAlpha" result="shadowOffsetOuter1"></feOffset>
            <feColorMatrix values="0 0 0 0 0   0 0 0 0 0   0 0 0 0 0  0 0 0 0.1 0" type="matrix" in="shadowOffsetOuter1"></feColorMatrix>
        </filter>
    </defs>
    <g id="Page-1" stroke="none" stroke-width="1" fill="none" fill-rule="evenodd">
        <g id="ILLU" transform="translate(-26.000000, -538.000000)">
            <g id="illus-element-wishlist" transform="translate(26.000000, 538.000000)">
                <mask id="mask-3" fill="white">
                    <use xlink:href="#path-2"></use>
                </mask>
                <use id="Mask" fill="url(#linearGradient-1)" xlink:href="#path-2"></use>
                <g id="Shape" mask="url(#mask-3)">
                    <use fill="black" fill-opacity="1" filter="url(#filter-5)" xlink:href="#path-4"></use>
                    <use fill="#73AEF2" fill-rule="evenodd" xlink:href="#path-4"></use>
                </g>
                <rect id="Rectangle-900" fill="#FFFFFF" mask="url(#mask-3)" x="23" y="19" width="2" height="10"></rect>
                <rect id="Rectangle-900" fill="#FFFFFF" mask="url(#mask-3)" transform="translate(24.000000, 24.000000) rotate(-270.000000) translate(-24.000000, -24.000000) " x="23" y="19" width="2" height="10"></rect>
            </g>
        </g>
    </g>
</svg>