<?xml version="1.0" encoding="UTF-8" standalone="no"?>
<svg width="48px" height="48px" viewBox="0 0 48 48" version="1.1" xmlns="http://www.w3.org/2000/svg" xmlns:xlink="http://www.w3.org/1999/xlink">
    <!-- Generator: Sketch 3.8.3 (29802) - http://www.bohemiancoding.com/sketch -->
    <title>illus-element-size</title>
    <desc>Created with Sketch.</desc>
    <defs>
        <linearGradient x1="50%" y1="100%" x2="50%" y2="0%" id="linearGradient-1">
            <stop stop-color="#1678EA" offset="0%"></stop>
            <stop stop-color="#00489C" offset="100%"></stop>
        </linearGradient>
        <circle id="path-2" cx="24" cy="24" r="24"></circle>
        <path d="M0,0 L10,0 L10,29 L0,29 L0,0 Z M7.33333333,3.45238095 L10,3.45238095 L10,4.83333333 L7.33333333,4.83333333 L7.33333333,3.45238095 Z M7.33333333,6.9047619 L10,6.9047619 L10,8.28571429 L7.33333333,8.28571429 L7.33333333,6.9047619 Z M7.33333333,10.3571429 L10,10.3571429 L10,11.7380952 L7.33333333,11.7380952 L7.33333333,10.3571429 Z M4,13.8095238 L10,13.8095238 L10,15.1904762 L4,15.1904762 L4,13.8095238 Z M7.33333333,17.2619048 L10,17.2619048 L10,18.6428571 L7.33333333,18.6428571 L7.33333333,17.2619048 Z M7.33333333,20.7142857 L10,20.7142857 L10,22.0952381 L7.33333333,22.0952381 L7.33333333,20.7142857 Z M7.33333333,24.1666667 L10,24.1666667 L10,25.547619 L7.33333333,25.547619 L7.33333333,24.1666667 Z" id="path-4"></path>
        <filter x="-50%" y="-50%" width="200%" height="200%" filterUnits="objectBoundingBox" id="filter-5">
            <feOffset dx="0" dy="1" in="SourceAlpha" result="shadowOffsetOuter1"></feOffset>
            <feColorMatrix values="0 0 0 0 0   0 0 0 0 0   0 0 0 0 0  0 0 0 0.1 0" type="matrix" in="shadowOffsetOuter1"></feColorMatrix>
        </filter>
    </defs>
    <g id="Page-1" stroke="none" stroke-width="1" fill="none" fill-rule="evenodd">
        <g id="ILLU" transform="translate(-26.000000, -730.000000)">
            <g id="illus-element-size" transform="translate(26.000000, 730.000000)">
                <mask id="mask-3" fill="white">
                    <use xlink:href="#path-2"></use>
                </mask>
                <use id="Mask" fill="url(#linearGradient-1)" xlink:href="#path-2"></use>
                <g id="Group" mask="url(#mask-3)">
                    <g transform="translate(24.000000, 23.500000) rotate(-330.000000) translate(-24.000000, -23.500000) translate(19.000000, 9.000000)">
                        <g id="checkout" stroke-width="1" fill="none">
                            <g id="Combined-Shape">
                                <use fill="black" fill-opacity="1" filter="url(#filter-5)" xlink:href="#path-4"></use>
                                <use fill="#73AEF2" fill-rule="evenodd" xlink:href="#path-4"></use>
                            </g>
                        </g>
                        <rect id="Rectangle-955" fill="#FFFFFF" x="2" y="13.1190476" width="0.666666667" height="2.76190476"></rect>
                    </g>
                </g>
            </g>
        </g>
    </g>
</svg>