<?xml version="1.0" encoding="UTF-8" standalone="no"?>
<svg width="120px" height="120px" viewBox="0 0 120 120" version="1.1" xmlns="http://www.w3.org/2000/svg" xmlns:xlink="http://www.w3.org/1999/xlink">
    <!-- Generator: Sketch 3.8.3 (29802) - http://www.bohemiancoding.com/sketch -->
    <title>product price</title>
    <desc>Created with Sketch.</desc>
    <defs>
        <linearGradient x1="50%" y1="100%" x2="50%" y2="0%" id="linearGradient-1">
            <stop stop-color="#1678EA" offset="0%"></stop>
            <stop stop-color="#00489C" offset="100%"></stop>
        </linearGradient>
        <circle id="path-2" cx="60" cy="60" r="60"></circle>
    </defs>
    <g id="Page-1" stroke="none" stroke-width="1" fill="none" fill-rule="evenodd">
        <g id="Extension-002" transform="translate(-1015.000000, -288.000000)">
            <g id="EXTENSION" transform="translate(915.000000, 92.000000)">
                <g id="product-price" transform="translate(100.000000, 196.000000)">
                    <mask id="mask-3" fill="white">
                        <use xlink:href="#path-2"></use>
                    </mask>
                    <use id="Mask" fill="url(#linearGradient-1)" xlink:href="#path-2"></use>
                    <rect id="Rectangle-211" fill="#73AEF2" mask="url(#mask-3)" x="-12.5" y="35" width="145" height="50"></rect>
                    <g id="Group" mask="url(#mask-3)">
                        <g transform="translate(32.500000, 72.500000)">
                            <rect id="Rectangle-214" fill="#4886CD" x="15" y="0" width="5" height="5"></rect>
                            <rect id="Rectangle-215" fill="#4886CD" x="20" y="5" width="5" height="30"></rect>
                            <rect id="Rectangle-216" fill="#4886CD" x="25" y="20" width="5" height="5"></rect>
                            <rect id="Rectangle-217" fill="#4886CD" x="30" y="25" width="5" height="10"></rect>
                            <rect id="Rectangle-218" fill="#4886CD" x="35" y="25" width="5" height="5"></rect>
                            <rect id="Rectangle-219" fill="#4886CD" x="40" y="30" width="5" height="10"></rect>
                            <rect id="Rectangle-219" fill="#4886CD" x="45" y="35" width="5" height="10"></rect>
                            <rect id="Rectangle-220" fill="#4886CD" x="5" y="30" width="5" height="5"></rect>
                            <rect id="Rectangle-221" fill="#4886CD" x="0" y="35" width="5" height="10"></rect>
                            <rect id="Rectangle-213" fill="#4886CD" x="10" y="5" width="5" height="35"></rect>
                            <path d="M10,40 L15,40 L15,50 L10,50 L10,40 Z M40,40 L45,40 L45,52.5 L40,52.5 L40,40 Z M15,5 L20,5 L20,50 L15,50 L15,5 Z M20,35 L40,35 L40,50 L20,50 L20,35 Z M25,25 L30,25 L30,35 L25,35 L25,25 Z M35,30 L40,30 L40,35 L35,35 L35,30 Z M5,35 L10,35 L10,45 L5,45 L5,35 Z" id="Combined-Shape" fill="#FFFFFF"></path>
                        </g>
                    </g>
                    <path d="M35.0244141,68.5 L35.0244141,54.28125 L39.8974609,54.28125 C40.6656939,54.28125 41.3557912,54.3577466 41.9677734,54.5107422 C42.5797557,54.6637377 43.0973286,54.8964828 43.5205078,55.2089844 C43.943687,55.5214859 44.267577,55.920245 44.4921875,56.4052734 C44.716798,56.8903019 44.8291016,57.4648404 44.8291016,58.1289062 C44.8291016,58.7799512 44.6533221,59.3658828 44.3017578,59.8867188 C43.9501936,60.4075547 43.4358758,60.8111965 42.7587891,61.0976562 C43.1689474,61.2083339 43.5253891,61.3694651 43.828125,61.5810547 C44.1308609,61.7926443 44.3815094,62.0416652 44.5800781,62.328125 C44.7786468,62.6145848 44.9267573,62.9303368 45.0244141,63.2753906 C45.1220708,63.6204444 45.1708984,63.9785138 45.1708984,64.3496094 C45.1708984,65.0332065 45.0585949,65.6337865 44.8339844,66.1513672 C44.6093739,66.6689479 44.2838563,67.1018863 43.8574219,67.4501953 C43.4309875,67.7985043 42.9134145,68.060546 42.3046875,68.2363281 C41.6959605,68.4121103 41.0074908,68.5 40.2392578,68.5 L35.0244141,68.5 Z M37.4951172,62.0839844 L37.4951172,66.5273438 L40.2392578,66.5273438 C40.6429057,66.5273438 40.9993474,66.4752609 41.3085938,66.3710938 C41.6178401,66.2669266 41.8766266,66.1188161 42.0849609,65.9267578 C42.2932953,65.7346996 42.4495438,65.5052097 42.5537109,65.2382812 C42.6578781,64.9713528 42.7099609,64.6751318 42.7099609,64.3496094 C42.7099609,63.6464809 42.5244159,63.093101 42.1533203,62.6894531 C41.7822247,62.2858053 41.1800172,62.0839844 40.3466797,62.0839844 L37.4951172,62.0839844 Z M37.4951172,60.2675781 L39.9169922,60.2675781 C40.6852252,60.2675781 41.2858051,60.0934262 41.71875,59.7451172 C42.1516949,59.3968082 42.3681641,58.903649 42.3681641,58.265625 C42.3681641,57.5624965 42.1679708,57.0546891 41.7675781,56.7421875 C41.3671855,56.4296859 40.7438193,56.2734375 39.8974609,56.2734375 L37.4951172,56.2734375 L37.4951172,60.2675781 Z M65.5419922,54.28125 L65.5419922,63.7929688 C65.5419922,64.6067749 65.4036472,65.3196584 65.1269531,65.9316406 C64.850259,66.5436229 64.4710311,67.0546854 63.9892578,67.4648438 C63.5074846,67.8750021 62.9443392,68.1826162 62.2998047,68.3876953 C61.6552702,68.5927745 60.9651729,68.6953125 60.2294922,68.6953125 C59.4677696,68.6953125 58.7630241,68.5927745 58.1152344,68.3876953 C57.4674447,68.1826162 56.9059269,67.8750021 56.4306641,67.4648438 C55.9554013,67.0546854 55.5843112,66.5436229 55.3173828,65.9316406 C55.0504544,65.3196584 54.9169922,64.6067749 54.9169922,63.7929688 L54.9169922,54.28125 L57.3779297,54.28125 L57.3779297,63.7929688 C57.3779297,64.3007838 57.4446608,64.7386049 57.578125,65.1064453 C57.7115892,65.4742857 57.902017,65.7786446 58.1494141,66.0195312 C58.3968111,66.2604179 58.6962873,66.437825 59.0478516,66.5517578 C59.3994158,66.6656907 59.7932921,66.7226562 60.2294922,66.7226562 C60.6656923,66.7226562 61.0611961,66.6656907 61.4160156,66.5517578 C61.7708351,66.437825 62.0703113,66.2604179 62.3144531,66.0195312 C62.558595,65.7786446 62.7473952,65.4742857 62.8808594,65.1064453 C63.0143236,64.7386049 63.0810547,64.3007838 63.0810547,63.7929688 L63.0810547,54.28125 L65.5419922,54.28125 Z M80.3173828,61.0195312 L83.5888672,54.28125 L86.3232422,54.28125 L81.5576172,63.265625 L81.5576172,68.5 L79.0771484,68.5 L79.0771484,63.265625 L74.3017578,54.28125 L77.0458984,54.28125 L80.3173828,61.0195312 Z" id="BUY" fill="#FFFFFF" mask="url(#mask-3)"></path>
                </g>
            </g>
        </g>
    </g>
</svg>