<?xml version="1.0" encoding="UTF-8" standalone="no"?>
<svg width="68px" height="36px" viewBox="0 0 68 36" version="1.1" xmlns="http://www.w3.org/2000/svg" xmlns:xlink="http://www.w3.org/1999/xlink">
    <!-- Generator: Sketch 3.8.3 (29802) - http://www.bohemiancoding.com/sketch -->
    <title>product</title>
    <desc>Created with Sketch.</desc>
    <defs>
        <path d="M0.949249443,0.0389176418 C0.949249443,0.0389176418 5.2820749,10.0460136 13.3167716,11.5387043 C21.3514682,13.0313951 27.1113607,12.4381324 27.1113607,12.4381324 L29.3789846,7.44162426 C29.3789846,7.44162426 21.1536328,7.41256716 17.9141909,5.9020775 C14.674749,4.39158783 10.1587426,0.110922779 10.1587426,0.110922779 L0.949249443,0.0389176418 Z" id="path-1"></path>
    </defs>
    <g id="Page-1" stroke="none" stroke-width="1" fill="none" fill-rule="evenodd">
        <g id="ILLU" transform="translate(-52.000000, -44.000000)">
            <g id="product" transform="translate(52.000000, 44.000000)">
                <path d="M2.8788674,8.76415352 C10.2821842,8.04675076 17.8808112,4.78633681 25.0888179,6.61194522 C31.182117,8.15522599 34.1203216,15.8204182 39.9533966,18.1542076 C45.5774162,20.4043547 52.8349663,16.7592658 58.0654844,19.8057744 C64.39893,23.4946816 56.128113,31.8678036 51.8496621,32.2189931 C21.9686011,34.6717302 11.1141579,39.9718812 4.2685547,11.9375 L2.8788674,8.76415352 Z" id="Path-476" fill="#FFFFFF"></path>
                <path d="M1.63138143,9.73390712 C1.63138143,9.73390712 0.401223706,16.1974072 0.401223706,19.7127143 C0.401223706,23.2280213 1.81130522,28.6073435 1.81130522,28.6073435 C1.81130522,28.6073435 4.18533833,32.5546818 24.7984201,32.5546812 C24.7984209,32.5546821 25.7126925,25.6805995 23.8947304,22.9124467 C23.8947292,22.9124473 14.5378789,15.698068 14.5378789,15.698068 L13.9915076,9.77759563" id="Path-471" fill="#1160BB"></path>
                <polygon id="Path-474" fill="#4886CD" points="23.4737618 22.8271484 33.3027712 16.8105469 44.2638561 20.9619141 35.8926887 34.4897461 22.9342571 32.6982422"></polygon>
                <path d="M1.33015154,27.7149374 C1.33015154,27.7149374 0.934231513,28.2828461 0.741670191,29.7327334 C0.54910887,31.1826208 1.62893902,32.4219605 1.62893902,32.4219605 C1.62893902,32.4219605 16.2085918,35.6257579 35.6958823,35.6257568 C50.1425774,35.6257559 66.9417081,33.4219605 66.9417081,33.4219605 C66.9417081,33.4219605 68.0793494,31.8339845 66.9417081,29.573251 C66.3570429,28.7307722 68.3788186,29.5944538 65.0499902,29.573251 C65.0499884,30.7561432 40.1461677,31.4923755 25.8861042,31.4923754 C6.16206042,31.4923753 1.33015154,27.7149374 1.33015154,27.7149374 Z" id="Path-473" fill="#73AEF2"></path>
                <path d="M52.3884837,17.4318448 C52.3884837,17.4318448 62.8409601,16.3731671 65.5276074,19.351507 C68.2142548,22.3298468 68.0976,29.1183408 67.0211287,29.5123743 C65.9446573,29.9064077 54.6691934,31.656147 50.0157536,30.9934572 C50.0157536,30.9934576 49.1753556,25.8863859 50.0157537,22.6600773" id="Path-475" fill="#4886CD"></path>
                <path d="M2.9348467,5.03710938 C2.9348467,5.03710938 1.00000003,4.97558596 1,7.96972656 C0.999999971,10.9638672 3.49056604,10.8134766 3.49056604,10.8134766 L24.4717022,10.8134766 L24.4717022,4 L2.9348467,5.03710938 Z" id="Path-470" fill="#4886CD"></path>
                <g id="Group-2" transform="translate(23.000000, 10.000000)">
                    <mask id="mask-2" fill="white">
                        <use xlink:href="#path-1"></use>
                    </mask>
                    <use id="Path-472" fill="#1160BB" xlink:href="#path-1"></use>
                    <path d="M4.32756753,7.45677662 L14.1284184,2.17626953" id="Path-477" stroke="#FFFFFF" stroke-width="1.5" mask="url(#mask-2)"></path>
                    <path d="M9.5859375,11.6635742 L17.7431642,4.3359375" id="Path-478" stroke="#FFFFFF" stroke-width="1.5" mask="url(#mask-2)"></path>
                    <path d="M17.484375,12.5629883 L22.6831055,5.49755859" id="Path-479" stroke="#FFFFFF" stroke-width="1.5" mask="url(#mask-2)"></path>
                    <path d="M24.024715,13.3742676 L27.3125001,5.20410156" id="Path-480" stroke="#FFFFFF" stroke-width="1.5" mask="url(#mask-2)"></path>
                    <path d="M1.02675802,1.58416808 L11.6054686,0.194824219" id="Path-481" stroke="#FFFFFF" stroke-width="1.5" mask="url(#mask-2)"></path>
                </g>
                <rect id="Rectangle-725" fill="#1160BB" x="23.7169811" y="0" width="12.0754717" height="10.5" rx="1.5"></rect>
                <rect id="Rectangle-726" fill="#4886CD" x="26.7358491" y="3" width="6.03773585" height="4.5"></rect>
            </g>
        </g>
    </g>
</svg>